<?xml version="1.0" standalone="no"?>
<svg id="Group123" width="77" height="385" viewBox="0 0 77 385" fill="none" xmlns="http://www.w3.org/2000/svg" style="max-width: 100%; max-height: 100%;">
<path d="M71.1027 180.64C68.635 174.059 64.2991 168.431 58.5412 164.357C52.6717 160.198 45.7427 158 38.5209 158C29.9189 158 21.6515 161.178 15.2662 166.947C9.17364 172.449 5.2142 179.898 4.07098 187.991C1.75665 188.439 0 190.483 0 192.947C0 195.733 2.25856 197.988 5.01901 197.988C7.79341 197.988 10.038 195.719 10.038 192.947C10.038 190.749 8.62991 188.873 6.67807 188.187C7.76553 180.766 11.4043 173.947 17.0089 168.893C22.9202 163.558 30.5602 160.618 38.5209 160.618C45.199 160.618 51.5982 162.648 57.0355 166.499C61.9987 170.013 65.8327 174.773 68.1749 180.346L58.4018 184.028C56.7985 180.43 54.275 177.35 51.0266 175.054C47.346 172.449 43.0241 171.077 38.507 171.077C26.5032 171.077 16.73 180.892 16.73 192.947V194.249H31.0482V191.631H19.379C20.0482 181.62 28.3714 173.681 38.507 173.681C42.4804 173.681 46.2864 174.9 49.5209 177.182C52.6857 179.422 55.0837 182.53 56.4499 186.143L56.91 187.361L71.5488 181.844L71.1027 180.64ZM7.44487 192.947C7.44487 194.291 6.35741 195.369 5.03295 195.369C3.70849 195.369 2.62104 194.277 2.62104 192.947C2.62104 191.617 3.70849 190.525 5.03295 190.525C6.35741 190.525 7.44487 191.603 7.44487 192.947Z" fill="url(#paint0_linear_233_60)" stroke-dasharray="0,0,0,389.89617919921875"><animate attributeType="XML" attributeName="stroke-dasharray" repeatCount="1" dur="2.5s" values="0,0,0,389.89617919921875; 
          0,194.94808959960938,194.94808959960938,0; 
          389.89617919921875,0,0,0" keyTimes="0; 0.5; 1" fill="freeze"></animate></path>
<path d="M77 192.947C77 190.161 74.7414 187.907 71.981 187.907C69.2066 187.907 66.962 190.175 66.962 192.947C66.962 195.145 68.3701 197.021 70.3219 197.707C69.2345 205.128 65.5957 211.947 59.9911 217.001C54.0798 222.336 46.4398 225.276 38.4791 225.276C31.801 225.276 25.4018 223.246 19.9645 219.395C15.0013 215.881 11.1673 211.121 8.82509 205.548L18.5982 201.866C20.2015 205.464 22.725 208.544 25.9734 210.841C29.654 213.445 33.9759 214.817 38.493 214.817C50.4968 214.817 60.27 205.002 60.27 192.947V191.645H45.9239V194.263H57.5932C56.924 204.274 48.6008 212.213 38.4651 212.213C34.4918 212.213 30.6857 210.995 27.4512 208.712C24.2864 206.472 21.8885 203.364 20.5222 199.752L20.0621 198.534L5.43726 204.036L5.89733 205.254C8.36501 211.835 12.7009 217.463 18.4588 221.538C24.3422 225.696 31.2573 227.894 38.4791 227.894C47.0811 227.894 55.3485 224.716 61.7338 218.947C67.8264 213.445 71.7858 205.996 72.929 197.904C75.2433 197.455 77 195.411 77 192.947ZM71.981 195.383C70.6426 195.383 69.5691 194.291 69.5691 192.961C69.5691 191.617 70.6565 190.539 71.981 190.539C73.3194 190.539 74.3929 191.631 74.3929 192.961C74.3929 194.291 73.3194 195.383 71.981 195.383Z" fill="url(#paint1_linear_233_60)" stroke-dasharray="0,0,0,389.92706298828125"><animate attributeType="XML" attributeName="stroke-dasharray" repeatCount="1" dur="2.5s" values="0,0,0,389.92706298828125; 
          0,194.96353149414062,194.96353149414062,0; 
          389.92706298828125,0,0,0" keyTimes="0; 0.5; 1" fill="freeze"></animate></path>
<path d="M38.5209 201.74C33.6971 201.74 29.7655 197.792 29.7655 192.947C29.7655 188.103 33.6971 184.154 38.5209 184.154C43.3447 184.154 47.2763 188.103 47.2763 192.947C47.2902 197.792 43.3587 201.74 38.5209 201.74ZM38.5209 186.773C35.1331 186.773 32.3726 189.545 32.3726 192.947C32.3726 196.349 35.1331 199.122 38.5209 199.122C41.9087 199.122 44.6692 196.349 44.6692 192.947C44.6831 189.545 41.9227 186.773 38.5209 186.773Z" fill="#D30D60" stroke-dasharray="0,0,0,93.83699035644531"><animate attributeType="XML" attributeName="stroke-dasharray" repeatCount="1" dur="2.5s" values="0,0,0,93.83699035644531; 
          0,46.918495178222656,46.918495178222656,0; 
          93.83699035644531,0,0,0" keyTimes="0; 0.5; 1" fill="freeze"></animate></path>
<path d="M39 0V131" stroke="#D30D60" stroke-width="2" stroke-dasharray="0,0,0,131"><animate attributeType="XML" attributeName="stroke-dasharray" repeatCount="1" dur="2.5s" values="0,0,0,131; 
          0,65.5,65.5,0; 
          131,0,0,0" keyTimes="0; 0.5; 1" fill="freeze"></animate></path>
<path d="M39 254V385" stroke="#D30D60" stroke-width="2" stroke-dasharray="0,0,0,131"><animate attributeType="XML" attributeName="stroke-dasharray" repeatCount="1" dur="2.5s" values="0,0,0,131; 
          0,65.5,65.5,0; 
          131,0,0,0" keyTimes="0; 0.5; 1" fill="freeze"></animate></path>
<defs>
<linearGradient id="paint0_linear_233_60" x1="30.9963" y1="177.993" x2="5.17181" y2="177.993" gradientUnits="userSpaceOnUse">
<stop offset="0.0389" stop-color="#D30D60"></stop>
<stop offset="1" stop-color="#2C2660"></stop>
</linearGradient>
<linearGradient id="paint1_linear_233_60" x1="45.8336" y1="207.902" x2="72.0341" y2="207.902" gradientUnits="userSpaceOnUse">
<stop offset="0.0389" stop-color="#D30D60"></stop>
<stop offset="1" stop-color="#2C2660"></stop>
</linearGradient>
</defs>
<setting>{"type":"direct","speed":20,"random":1,"shift":1,"size":1,"rupture":50}</setting></svg>