<?xml version="1.0" standalone="no"?>
<svg id="Group137" width="1724" height="823" viewBox="0 0 1724 823" fill="none" xmlns="http://www.w3.org/2000/svg" style="max-width: 100%; max-height: 100%;">
<g filter="url(#filter0_d_233_125)">
<rect x="4" width="1691" height="813" rx="24" fill="#F9F9F9" stroke-dasharray="0,0,0,4965.82421875"><animate attributeType="XML" attributeName="stroke-dasharray" repeatCount="1" dur="2.5s" values="0,0,0,4965.82421875; 
          0,2482.912109375,2482.912109375,0; 
          4965.82421875,0,0,0" keyTimes="0; 0.5; 1" fill="freeze"></animate></rect>
</g>
<mask id="mask0_233_125" style="mask-type:alpha" maskUnits="userSpaceOnUse" x="4" y="2" width="1691" height="813">
<rect x="4" y="2" width="1691" height="813" rx="30" fill="#F3F4F4" stroke-dasharray="0,0,0,4956.19140625"><animate attributeType="XML" attributeName="stroke-dasharray" repeatCount="1" dur="2.5s" values="0,0,0,4956.19140625; 
          0,2478.095703125,2478.095703125,0; 
          4956.19140625,0,0,0" keyTimes="0; 0.5; 1" fill="freeze"></animate></rect>
</mask>
<g mask="url(#mask0_233_125)">
<path opacity="0.3" d="M32.9298 61.9188C36.1289 63.8182 41.3145 63.8182 44.5136 61.9188C44.6426 61.8397 44.7458 61.7342 44.8748 61.655L223.843 167.31V298.819L-9.9742 160.768V162.931L267.547 326.782V472.167L417.234 560.543L390.738 576.187L245.024 490.159L245.489 489.341L106.844 407.481V389.595L78.6974 372.975V321.77L-9.9742 269.431V271.594L76.8915 322.878V371.92L41.0565 350.763C43.3784 348.863 43.1204 346.225 40.2309 344.51C37.0318 342.611 31.8462 342.611 28.6471 344.51C25.448 346.41 25.448 349.47 28.6471 351.343C31.5366 353.058 36.0257 353.19 39.2248 351.818L105.038 390.65V408.537L242.548 489.71H178.695L-9.9742 378.383V380.547L175.006 489.763H-9.9742V491.636H243.864L388.906 577.269L361.456 593.466L256.325 531.392L256.118 531.26H-9.9742V533.133H178.592L121.24 566.98H-9.9742V568.853H121.756L182.281 533.133H255.654L359.676 594.548L335.528 608.794L243.477 554.449L243.27 554.317H206.145L130.915 598.716H-10V600.589H131.405L206.661 556.217H242.754L309.6 595.682H276.19L243.58 576.424H218.271L161.951 609.664C158.752 608.372 154.392 608.556 151.554 610.245C148.355 612.144 148.355 615.204 151.554 617.077C154.753 618.977 159.939 618.977 163.138 617.077C166.079 615.336 166.286 612.619 163.809 610.719L218.761 578.271H243.09L275.7 597.529H312.773L333.67 609.875L299.667 629.951H249.539L187.467 666.594C184.268 665.222 179.778 665.381 176.889 667.069C173.69 668.968 173.69 672.028 176.889 673.902C180.088 675.801 185.274 675.801 188.473 673.902C191.362 672.187 191.62 669.549 189.298 667.649L250.03 631.798H296.494L280.498 641.242L305.343 655.91L238.11 695.587H167.421L92.8612 651.557C95.1831 649.658 94.9251 647.019 92.0356 645.305C88.8365 643.405 83.6509 643.405 80.4518 645.305C77.2527 647.204 77.2527 650.264 80.4518 652.137C83.3413 653.852 87.8303 653.984 91.0294 652.612L129.419 675.273H-10V677.437L-9.53562 677.146H132.592L166.698 697.275L166.905 697.407H234.911L207.048 713.868H47.0935L5.81487 738.244H-9.9742V740.117H2.64158L-9.9742 747.557V749.72L47.6095 715.742H207.564L307.175 656.939L353.613 684.348L237.698 752.833H112.984L-9.9742 825.433V827.596L113.475 754.706H234.524L81.4579 845.087V917.423L-9.9742 971.398V973.562L83.2897 918.505V846.168L355.445 685.509L395.382 709.094L231.815 805.647V951.032L139.558 1005.51H143.221L233.647 952.114V806.729L397.214 710.175L421.852 724.737L300.673 796.282V966.702L242.419 1001.1V1005.54H244.251V1002.18L302.505 967.758V797.337L423.709 725.793L456.964 745.42L364.242 800.16V1005.48H366.074V918.083L412.564 945.545V1005.51H414.396V944.463L366.074 915.919V865.637L427.244 901.753C425.102 903.626 425.438 906.211 428.25 907.873C431.449 909.773 436.635 909.773 439.834 907.873C443.033 905.974 443.033 902.914 439.834 901.041C436.867 899.299 432.249 899.194 429.024 900.671L366.048 863.501V801.268L458.77 746.528L488.388 764.018L443.317 790.61V829.812L454.694 836.539V856.51L535.936 904.444V938.29L602.059 977.334C599.737 979.233 599.995 981.871 602.884 983.586C606.083 985.486 611.269 985.486 614.468 983.586C617.667 981.687 617.667 978.627 614.468 976.754C611.579 975.039 607.09 974.907 603.89 976.279L537.767 937.235V903.388L456.552 855.428V837.621L593.081 918.214C590.939 920.088 591.275 922.673 594.087 924.335C597.286 926.234 602.472 926.234 605.671 924.335C608.87 922.435 608.87 919.375 605.671 917.502C602.704 915.761 598.086 915.656 594.861 917.133L485.395 852.526H540.321L603.297 889.697C600.975 891.596 601.233 894.234 604.123 895.949C607.322 897.848 612.507 897.848 615.707 895.949C618.906 894.05 618.906 890.989 615.707 889.116C612.817 887.402 608.328 887.27 605.129 888.642L541.018 850.785L540.812 850.653H482.377V850.759L445.148 828.783V791.745L490.219 765.153L499.146 770.429L510.756 763.57L699.966 875.266L700.173 875.398H751.771C752.081 876.295 752.829 877.166 754.016 877.878C757.215 879.778 762.4 879.778 765.6 877.878C768.799 875.979 768.799 872.919 765.6 871.046C762.4 869.146 757.215 869.146 754.016 871.046C752.829 871.758 752.081 872.628 751.771 873.525H700.663L512.562 762.488L541.328 745.499L698.573 838.333C696.251 840.233 696.509 842.871 699.399 844.586C702.598 846.485 707.784 846.485 710.983 844.586C714.182 842.686 714.182 839.626 710.983 837.753C708.093 836.038 703.604 835.906 700.405 837.278L543.159 744.444L572.957 726.848L795.14 858.013V967.837L731.183 1005.59H734.847L772.952 983.085L811.058 1005.59H814.721L774.784 982.003L796.945 968.918V882.548L834.509 904.734V958.683L910.9 1003.79C910.204 1004.35 909.791 1004.98 909.559 1005.61H925.528C925.219 1004.72 924.471 1003.87 923.31 1003.19C920.42 1001.47 915.931 1001.34 912.732 1002.71L836.341 957.601V903.652L796.945 880.384V856.932L574.763 725.766L607.502 706.429L1038.24 960.714V1005.59H1040.08V959.632L609.412 705.268L635.907 689.625L857.909 820.685L858.115 820.816H1019.64L1090.9 862.894H1090.49V907.583L1171.19 955.227C1168.87 957.126 1169.12 959.764 1172.01 961.479C1175.21 963.378 1180.4 963.378 1183.6 961.479C1186.8 959.58 1186.8 956.519 1183.6 954.646C1180.71 952.932 1176.22 952.8 1173.02 954.172L1092.32 906.528V863.738L1214.76 936.022L1214.97 936.153H1486.25L1538 905.604V903.441L1485.76 934.28H1215.46L1020.37 819.102L1020.16 818.97H858.631L637.765 688.569L661.087 674.798L871.17 798.815L871.376 798.947H1056.74L1147.04 852.236C1144.72 854.135 1144.98 856.773 1147.87 858.488C1151.06 860.388 1156.25 860.388 1159.45 858.488C1162.65 856.589 1162.65 853.529 1159.45 851.656C1156.56 849.941 1152.07 849.809 1148.87 851.181L1057.47 797.206L1057.26 797.074H871.892L840.804 778.713H1088.53L1284.42 663.059C1287.62 664.431 1292.11 664.273 1295 662.584C1298.2 660.685 1298.2 657.625 1295 655.752C1291.8 653.852 1286.61 653.852 1283.41 655.752C1280.52 657.466 1280.27 660.104 1282.59 662.004L1088.04 776.866H837.631L759.279 730.594L790.057 712.418H844.674L895.808 682.211C899.007 683.583 903.496 683.425 906.385 681.737C909.585 679.837 909.585 676.777 906.385 674.904C903.186 673.005 898.001 673.005 894.802 674.904C891.912 676.619 891.654 679.257 893.976 681.156L844.184 710.545H793.23L912.268 640.266H1022.33L1083.73 676.513C1081.41 678.413 1081.66 681.051 1084.55 682.766C1087.75 684.665 1092.94 684.665 1096.14 682.766C1099.34 680.866 1099.34 677.806 1096.14 675.933C1093.25 674.218 1088.76 674.086 1085.56 675.458L1023.02 638.551L1022.82 638.419H911.752L757.421 729.539L691.788 690.759H728.01L757.163 673.559C760.362 674.983 764.929 674.851 767.87 673.137C771.069 671.237 771.069 668.177 767.87 666.304C764.671 664.404 759.485 664.404 756.286 666.304C753.448 667.992 753.139 670.578 755.357 672.477L727.52 688.912H688.615L662.893 673.717L717.82 641.295L700.611 631.138L795.372 575.211H826.976L864.72 597.476C862.398 599.376 862.656 602.014 865.545 603.728C868.744 605.628 873.93 605.628 877.129 603.728C880.328 601.829 880.328 598.769 877.129 596.896C874.24 595.181 869.751 595.049 866.552 596.421L827.672 573.47L827.466 573.338H794.856L725.998 613.991V576.767L790.547 538.647C793.746 540.019 798.235 539.86 801.125 538.172C804.324 536.273 804.324 533.213 801.125 531.339C797.926 529.44 792.74 529.44 789.541 531.339C786.652 533.054 786.394 535.692 788.716 537.592L724.166 575.712V615.099L698.754 630.109L609.386 577.348L650.845 552.866H704.61L789.619 502.69H854.116L943.794 555.636C941.472 557.536 941.73 560.174 944.62 561.888C947.819 563.788 953.004 563.788 956.204 561.888C959.403 559.989 959.403 556.929 956.204 555.056C953.314 553.341 948.825 553.209 945.626 554.581L854.813 500.975L854.607 500.843H789.128L704.12 551.02H654.018L903.083 403.973H1079.03L1189.89 338.522L1190.36 338.258V237.642C1192.7 237.773 1195.13 237.325 1196.94 236.27C1200.13 234.37 1200.13 231.31 1196.94 229.437C1193.74 227.538 1188.55 227.538 1185.35 229.437C1182.15 231.337 1182.15 234.397 1185.35 236.27C1186.28 236.824 1187.36 237.193 1188.52 237.404V337.177L1078.57 402.1H902.619L607.58 576.292L574.092 556.533L871.969 380.679L872.434 380.415V275.313L974.34 215.139C977.539 216.511 982.029 216.352 984.918 214.664C988.117 212.764 988.117 209.704 984.918 207.831C981.719 205.932 976.533 205.932 973.334 207.831C970.445 209.546 970.187 212.184 972.509 214.084L871.066 273.836L870.602 274.1V379.201L572.261 555.32L537.097 534.558L711.834 431.409L712.298 431.145V340.949L412.125 163.722C414.447 161.823 414.189 159.185 411.3 157.47C408.101 155.571 402.915 155.571 399.716 157.47C396.517 159.37 396.517 162.43 399.716 164.303C402.606 166.018 407.095 166.15 410.294 164.778L631.005 295.073H564.65L445.639 224.847C447.961 222.947 447.702 220.309 444.813 218.595C441.614 216.695 436.428 216.695 433.229 218.595C430.03 220.494 430.03 223.554 433.229 225.427C436.119 227.142 440.608 227.274 443.807 225.902L563.953 296.814L564.16 296.946H634.179L710.467 341.978V430.011L569.81 513.058V468.316L656.237 417.295L656.701 417.031V371.735C658.482 371.63 660.21 371.181 661.577 370.364C664.776 368.464 664.776 365.404 661.577 363.531C658.378 361.632 653.193 361.632 649.994 363.531C646.794 365.43 646.794 368.491 649.994 370.364C651.361 371.181 653.09 371.603 654.87 371.735V415.95L568.442 466.97L567.978 467.234V514.139L535.291 533.45L499.198 512.134L477.294 525.061V427.373L553.531 382.367C556.73 383.739 561.219 383.58 564.108 381.892C567.307 379.993 567.307 376.932 564.108 375.059C560.909 373.16 555.723 373.16 552.524 375.059C549.635 376.774 549.377 379.412 551.699 381.312L475.927 426.054L475.462 426.317V466.179L418.472 432.517V394.713L542.772 321.322C545.971 322.693 550.46 322.535 553.35 320.847C556.549 318.947 556.549 315.887 553.35 314.014C550.151 312.115 544.965 312.115 541.766 314.014C538.877 315.729 538.619 318.367 540.941 320.266L417.079 393.394L416.615 393.658V433.625L475.437 468.368V526.195L444.245 544.609L417.879 529.044V493.668L377.89 470.057C380.212 468.157 379.954 465.519 377.064 463.805C373.865 461.905 368.68 461.905 365.481 463.805C362.282 465.704 362.282 468.764 365.481 470.637C368.37 472.352 372.859 472.484 376.058 471.112L416.047 494.723V527.936L328.846 476.441V398.908L460.086 321.427L460.55 321.163V291.986L386.326 248.168C388.648 246.268 388.39 243.63 385.501 241.915C382.302 240.016 377.116 240.016 373.917 241.915C370.718 243.815 370.718 246.875 373.917 248.748C376.806 250.463 381.296 250.595 384.495 249.223L458.719 293.041V320.082L327.479 397.562L327.014 397.826V477.523L442.439 545.664L419.117 559.435L269.43 471.059V325.674L225.727 299.874V166.202L46.3195 60.336C47.5321 58.5948 46.9387 56.5108 44.5394 55.0862C41.3403 53.1868 36.1547 53.1868 32.9556 55.0862C29.7307 56.9592 29.7307 60.0194 32.9298 61.9188ZM499.172 514.324L714.182 641.268L499.198 768.187L284.188 641.242L499.172 514.324Z" stroke="url(#paint0_radial_233_125)" stroke-miterlimit="10" stroke-dasharray="0,0,0,33002.62109375"><animate attributeType="XML" attributeName="stroke-dasharray" repeatCount="1" dur="2.5s" values="0,0,0,33002.62109375; 
          0,16501.310546875,16501.310546875,0; 
          33002.62109375,0,0,0" keyTimes="0; 0.5; 1" fill="freeze"></animate></path>
</g>
<path d="M1239.12 270.032C1239.95 270.448 1240.43 271.104 1240.56 272C1240.72 272.896 1240.5 273.712 1239.89 274.448C1239.47 275.024 1238.93 275.344 1238.26 275.408C1237.62 275.472 1236.96 275.344 1236.29 275.024C1235.52 274.672 1234.7 274.4 1233.84 274.208C1233.01 274.016 1232.13 273.92 1231.2 273.92C1229.47 273.92 1227.92 274.192 1226.54 274.736C1225.2 275.28 1224.05 276.064 1223.09 277.088C1222.13 278.08 1221.39 279.264 1220.88 280.64C1220.4 282.016 1220.16 283.536 1220.16 285.2C1220.16 287.152 1220.43 288.848 1220.98 290.288C1221.55 291.728 1222.34 292.928 1223.33 293.888C1224.32 294.848 1225.49 295.568 1226.83 296.048C1228.18 296.496 1229.63 296.72 1231.2 296.72C1232.06 296.72 1232.93 296.64 1233.79 296.48C1234.66 296.32 1235.49 296.032 1236.29 295.616C1236.96 295.296 1237.62 295.184 1238.26 295.28C1238.93 295.376 1239.49 295.712 1239.94 296.288C1240.58 297.088 1240.8 297.92 1240.61 298.784C1240.45 299.616 1239.97 300.224 1239.17 300.608C1238.34 301.024 1237.47 301.376 1236.58 301.664C1235.71 301.92 1234.83 302.112 1233.94 302.24C1233.04 302.4 1232.13 302.48 1231.2 302.48C1228.9 302.48 1226.7 302.112 1224.62 301.376C1222.58 300.64 1220.74 299.552 1219.1 298.112C1217.5 296.672 1216.24 294.88 1215.31 292.736C1214.38 290.56 1213.92 288.048 1213.92 285.2C1213.92 282.736 1214.34 280.464 1215.17 278.384C1216.03 276.304 1217.23 274.512 1218.77 273.008C1220.34 271.472 1222.18 270.288 1224.29 269.456C1226.4 268.592 1228.7 268.16 1231.2 268.16C1232.61 268.16 1233.98 268.32 1235.33 268.64C1236.67 268.96 1237.94 269.424 1239.12 270.032ZM1270.13 289.184C1270.13 291.808 1269.53 294.128 1268.35 296.144C1267.2 298.128 1265.63 299.68 1263.65 300.8C1261.69 301.92 1259.5 302.48 1257.07 302.48C1254.64 302.48 1252.43 301.92 1250.45 300.8C1248.49 299.68 1246.93 298.128 1245.74 296.144C1244.59 294.128 1244.01 291.808 1244.01 289.184C1244.01 286.56 1244.59 284.256 1245.74 282.272C1246.93 280.256 1248.49 278.688 1250.45 277.568C1252.43 276.416 1254.64 275.84 1257.07 275.84C1259.5 275.84 1261.69 276.416 1263.65 277.568C1265.63 278.688 1267.2 280.256 1268.35 282.272C1269.53 284.256 1270.13 286.56 1270.13 289.184ZM1264.37 289.184C1264.37 287.552 1264.03 286.144 1263.36 284.96C1262.72 283.744 1261.84 282.8 1260.72 282.128C1259.63 281.456 1258.41 281.12 1257.07 281.12C1255.73 281.12 1254.49 281.456 1253.37 282.128C1252.29 282.8 1251.41 283.744 1250.73 284.96C1250.09 286.144 1249.77 287.552 1249.77 289.184C1249.77 290.784 1250.09 292.192 1250.73 293.408C1251.41 294.592 1252.29 295.52 1253.37 296.192C1254.49 296.864 1255.73 297.2 1257.07 297.2C1258.41 297.2 1259.63 296.864 1260.72 296.192C1261.84 295.52 1262.72 294.592 1263.36 293.408C1264.03 292.192 1264.37 290.784 1264.37 289.184ZM1288.89 275.84C1291.26 275.84 1293.05 276.336 1294.27 277.328C1295.52 278.32 1296.37 279.648 1296.81 281.312C1297.29 282.944 1297.53 284.768 1297.53 286.784V299.072C1297.53 299.904 1297.26 300.608 1296.72 301.184C1296.17 301.728 1295.49 302 1294.65 302C1293.82 302 1293.13 301.728 1292.59 301.184C1292.05 300.608 1291.77 299.904 1291.77 299.072V286.784C1291.77 285.728 1291.63 284.784 1291.34 283.952C1291.09 283.088 1290.61 282.4 1289.9 281.888C1289.2 281.376 1288.19 281.12 1286.88 281.12C1285.6 281.12 1284.51 281.376 1283.61 281.888C1282.75 282.4 1282.08 283.088 1281.6 283.952C1281.15 284.784 1280.93 285.728 1280.93 286.784V299.072C1280.93 299.904 1280.65 300.608 1280.11 301.184C1279.57 301.728 1278.88 302 1278.05 302C1277.21 302 1276.53 301.728 1275.98 301.184C1275.44 300.608 1275.17 299.904 1275.17 299.072V279.248C1275.17 278.416 1275.44 277.728 1275.98 277.184C1276.53 276.608 1277.21 276.32 1278.05 276.32C1278.88 276.32 1279.57 276.608 1280.11 277.184C1280.65 277.728 1280.93 278.416 1280.93 279.248V281.312L1280.21 281.168C1280.49 280.624 1280.91 280.048 1281.45 279.44C1282 278.8 1282.64 278.208 1283.37 277.664C1284.11 277.12 1284.94 276.688 1285.87 276.368C1286.8 276.016 1287.81 275.84 1288.89 275.84ZM1304.05 276.8H1315.42C1316.19 276.8 1316.83 277.056 1317.34 277.568C1317.86 278.08 1318.11 278.72 1318.11 279.488C1318.11 280.224 1317.86 280.848 1317.34 281.36C1316.83 281.84 1316.19 282.08 1315.42 282.08H1304.05C1303.28 282.08 1302.64 281.824 1302.13 281.312C1301.62 280.8 1301.36 280.16 1301.36 279.392C1301.36 278.656 1301.62 278.048 1302.13 277.568C1302.64 277.056 1303.28 276.8 1304.05 276.8ZM1309.18 270.8C1310.02 270.8 1310.69 271.088 1311.2 271.664C1311.74 272.208 1312.02 272.896 1312.02 273.728V295.088C1312.02 295.536 1312.1 295.904 1312.26 296.192C1312.45 296.48 1312.69 296.688 1312.98 296.816C1313.3 296.944 1313.63 297.008 1313.98 297.008C1314.37 297.008 1314.72 296.944 1315.04 296.816C1315.36 296.656 1315.73 296.576 1316.14 296.576C1316.59 296.576 1316.99 296.784 1317.34 297.2C1317.73 297.616 1317.92 298.192 1317.92 298.928C1317.92 299.824 1317.42 300.56 1316.43 301.136C1315.47 301.712 1314.43 302 1313.31 302C1312.64 302 1311.89 301.952 1311.06 301.856C1310.26 301.728 1309.49 301.456 1308.75 301.04C1308.05 300.592 1307.46 299.92 1306.98 299.024C1306.5 298.128 1306.26 296.896 1306.26 295.328V273.728C1306.26 272.896 1306.53 272.208 1307.07 271.664C1307.65 271.088 1308.35 270.8 1309.18 270.8ZM1344.43 275.84C1345.26 275.84 1345.95 276.112 1346.49 276.656C1347.03 277.2 1347.31 277.904 1347.31 278.768V299.072C1347.31 299.904 1347.03 300.608 1346.49 301.184C1345.95 301.728 1345.26 302 1344.43 302C1343.59 302 1342.91 301.728 1342.36 301.184C1341.82 300.608 1341.55 299.904 1341.55 299.072V296.72L1342.6 297.152C1342.6 297.568 1342.38 298.08 1341.93 298.688C1341.48 299.264 1340.87 299.84 1340.11 300.416C1339.34 300.992 1338.43 301.488 1337.37 301.904C1336.35 302.288 1335.23 302.48 1334.01 302.48C1331.8 302.48 1329.8 301.92 1328.01 300.8C1326.22 299.648 1324.79 298.08 1323.74 296.096C1322.71 294.08 1322.2 291.776 1322.2 289.184C1322.2 286.56 1322.71 284.256 1323.74 282.272C1324.79 280.256 1326.2 278.688 1327.96 277.568C1329.72 276.416 1331.67 275.84 1333.82 275.84C1335.19 275.84 1336.46 276.048 1337.61 276.464C1338.76 276.88 1339.75 277.408 1340.59 278.048C1341.45 278.688 1342.11 279.344 1342.55 280.016C1343.03 280.656 1343.27 281.2 1343.27 281.648L1341.55 282.272V278.768C1341.55 277.936 1341.82 277.248 1342.36 276.704C1342.91 276.128 1343.59 275.84 1344.43 275.84ZM1334.73 297.2C1336.14 297.2 1337.37 296.848 1338.43 296.144C1339.48 295.44 1340.3 294.48 1340.87 293.264C1341.48 292.048 1341.79 290.688 1341.79 289.184C1341.79 287.648 1341.48 286.272 1340.87 285.056C1340.3 283.84 1339.48 282.88 1338.43 282.176C1337.37 281.472 1336.14 281.12 1334.73 281.12C1333.35 281.12 1332.14 281.472 1331.08 282.176C1330.03 282.88 1329.19 283.84 1328.59 285.056C1328.01 286.272 1327.72 287.648 1327.72 289.184C1327.72 290.688 1328.01 292.048 1328.59 293.264C1329.19 294.48 1330.03 295.44 1331.08 296.144C1332.14 296.848 1333.35 297.2 1334.73 297.2ZM1364.97 275.84C1366.79 275.84 1368.37 276.032 1369.72 276.416C1371.09 276.8 1372.15 277.344 1372.89 278.048C1373.65 278.72 1374.04 279.536 1374.04 280.496C1374.04 281.136 1373.85 281.744 1373.46 282.32C1373.08 282.864 1372.52 283.136 1371.78 283.136C1371.27 283.136 1370.84 283.072 1370.49 282.944C1370.17 282.784 1369.88 282.592 1369.62 282.368C1369.37 282.144 1369.06 281.936 1368.71 281.744C1368.39 281.552 1367.89 281.408 1367.22 281.312C1366.58 281.184 1366.1 281.12 1365.78 281.12C1364.15 281.12 1362.76 281.472 1361.61 282.176C1360.49 282.88 1359.62 283.84 1359.01 285.056C1358.41 286.24 1358.1 287.616 1358.1 289.184C1358.1 290.72 1358.41 292.096 1359.01 293.312C1359.65 294.496 1360.52 295.44 1361.61 296.144C1362.73 296.848 1364.01 297.2 1365.45 297.2C1366.25 297.2 1366.93 297.152 1367.51 297.056C1368.09 296.96 1368.57 296.816 1368.95 296.624C1369.4 296.368 1369.8 296.096 1370.15 295.808C1370.5 295.52 1371.03 295.376 1371.73 295.376C1372.57 295.376 1373.21 295.648 1373.65 296.192C1374.1 296.704 1374.33 297.344 1374.33 298.112C1374.33 298.912 1373.88 299.648 1372.98 300.32C1372.09 300.96 1370.9 301.488 1369.43 301.904C1367.99 302.288 1366.42 302.48 1364.73 302.48C1362.2 302.48 1360.01 301.904 1358.15 300.752C1356.29 299.568 1354.85 297.968 1353.83 295.952C1352.84 293.936 1352.34 291.68 1352.34 289.184C1352.34 286.56 1352.87 284.256 1353.93 282.272C1355.01 280.256 1356.5 278.688 1358.39 277.568C1360.31 276.416 1362.5 275.84 1364.97 275.84ZM1378.77 276.8H1390.14C1390.91 276.8 1391.55 277.056 1392.06 277.568C1392.58 278.08 1392.83 278.72 1392.83 279.488C1392.83 280.224 1392.58 280.848 1392.06 281.36C1391.55 281.84 1390.91 282.08 1390.14 282.08H1378.77C1378 282.08 1377.36 281.824 1376.85 281.312C1376.34 280.8 1376.08 280.16 1376.08 279.392C1376.08 278.656 1376.34 278.048 1376.85 277.568C1377.36 277.056 1378 276.8 1378.77 276.8ZM1383.9 270.8C1384.74 270.8 1385.41 271.088 1385.92 271.664C1386.46 272.208 1386.74 272.896 1386.74 273.728V295.088C1386.74 295.536 1386.82 295.904 1386.98 296.192C1387.17 296.48 1387.41 296.688 1387.7 296.816C1388.02 296.944 1388.35 297.008 1388.7 297.008C1389.09 297.008 1389.44 296.944 1389.76 296.816C1390.08 296.656 1390.45 296.576 1390.86 296.576C1391.31 296.576 1391.71 296.784 1392.06 297.2C1392.45 297.616 1392.64 298.192 1392.64 298.928C1392.64 299.824 1392.14 300.56 1391.15 301.136C1390.19 301.712 1389.15 302 1388.03 302C1387.36 302 1386.61 301.952 1385.78 301.856C1384.98 301.728 1384.21 301.456 1383.47 301.04C1382.77 300.592 1382.18 299.92 1381.7 299.024C1381.22 298.128 1380.98 296.896 1380.98 295.328V273.728C1380.98 272.896 1381.25 272.208 1381.79 271.664C1382.37 271.088 1383.07 270.8 1383.9 270.8ZM1430.63 276.32C1431.46 276.32 1432.15 276.608 1432.69 277.184C1433.24 277.728 1433.51 278.416 1433.51 279.248V291.44C1433.51 294.832 1432.57 297.52 1430.68 299.504C1428.79 301.488 1426.07 302.48 1422.52 302.48C1418.97 302.48 1416.25 301.488 1414.36 299.504C1412.5 297.52 1411.57 294.832 1411.57 291.44V279.248C1411.57 278.416 1411.85 277.728 1412.39 277.184C1412.93 276.608 1413.62 276.32 1414.45 276.32C1415.29 276.32 1415.97 276.608 1416.52 277.184C1417.06 277.728 1417.33 278.416 1417.33 279.248V291.44C1417.33 293.392 1417.77 294.848 1418.63 295.808C1419.49 296.736 1420.79 297.2 1422.52 297.2C1424.28 297.2 1425.59 296.736 1426.45 295.808C1427.32 294.848 1427.75 293.392 1427.75 291.44V279.248C1427.75 278.416 1428.02 277.728 1428.57 277.184C1429.11 276.608 1429.8 276.32 1430.63 276.32ZM1438.26 298.016C1437.94 297.568 1437.79 296.992 1437.83 296.288C1437.86 295.584 1438.27 294.976 1439.07 294.464C1439.59 294.144 1440.13 294.016 1440.71 294.08C1441.28 294.112 1441.84 294.4 1442.39 294.944C1443.31 295.872 1444.29 296.592 1445.31 297.104C1446.34 297.616 1447.62 297.872 1449.15 297.872C1449.63 297.84 1450.16 297.776 1450.74 297.68C1451.31 297.552 1451.81 297.296 1452.23 296.912C1452.67 296.496 1452.9 295.872 1452.9 295.04C1452.9 294.336 1452.66 293.776 1452.18 293.36C1451.7 292.944 1451.06 292.592 1450.26 292.304C1449.49 292.016 1448.63 291.744 1447.67 291.488C1446.67 291.2 1445.65 290.88 1444.59 290.528C1443.57 290.176 1442.63 289.728 1441.76 289.184C1440.9 288.608 1440.19 287.856 1439.65 286.928C1439.11 286 1438.83 284.832 1438.83 283.424C1438.83 281.824 1439.28 280.464 1440.18 279.344C1441.07 278.224 1442.23 277.36 1443.63 276.752C1445.07 276.144 1446.58 275.84 1448.15 275.84C1449.14 275.84 1450.18 275.968 1451.27 276.224C1452.35 276.448 1453.39 276.832 1454.39 277.376C1455.38 277.888 1456.21 278.576 1456.88 279.44C1457.23 279.92 1457.44 280.496 1457.51 281.168C1457.57 281.84 1457.27 282.448 1456.59 282.992C1456.11 283.376 1455.55 283.552 1454.91 283.52C1454.27 283.456 1453.75 283.232 1453.33 282.848C1452.79 282.144 1452.05 281.584 1451.12 281.168C1450.23 280.752 1449.19 280.544 1448 280.544C1447.52 280.544 1446.99 280.608 1446.42 280.736C1445.87 280.832 1445.39 281.072 1444.98 281.456C1444.56 281.808 1444.35 282.384 1444.35 283.184C1444.35 283.92 1444.59 284.512 1445.07 284.96C1445.55 285.376 1446.19 285.728 1446.99 286.016C1447.83 286.272 1448.71 286.528 1449.63 286.784C1450.59 287.04 1451.57 287.344 1452.56 287.696C1453.55 288.048 1454.47 288.512 1455.3 289.088C1456.13 289.664 1456.8 290.416 1457.31 291.344C1457.83 292.24 1458.08 293.392 1458.08 294.8C1458.08 296.432 1457.6 297.824 1456.64 298.976C1455.68 300.128 1454.48 301.008 1453.04 301.616C1451.6 302.192 1450.13 302.48 1448.62 302.48C1446.74 302.48 1444.85 302.16 1442.96 301.52C1441.07 300.848 1439.51 299.68 1438.26 298.016Z" fill="#210060" stroke-dasharray="0,0,0,1149.86279296875"><animate attributeType="XML" attributeName="stroke-dasharray" repeatCount="1" dur="2.5s" values="0,0,0,1149.86279296875; 
          0,574.931396484375,574.931396484375,0; 
          1149.86279296875,0,0,0" keyTimes="0; 0.5; 1" fill="freeze"></animate></path>
<path d="M1249.52 385C1249.33 385 1249.18 384.94 1249.06 384.82C1248.94 384.7 1248.88 384.56 1248.88 384.4V372.36L1249.1 372.56L1246.44 374.34C1246.33 374.42 1246.22 374.46 1246.1 374.46C1245.94 374.46 1245.79 374.393 1245.66 374.26C1245.54 374.127 1245.48 373.98 1245.48 373.82C1245.48 373.607 1245.59 373.44 1245.8 373.32L1249.14 371.1C1249.22 371.047 1249.3 371.013 1249.38 371C1249.47 370.987 1249.55 370.987 1249.62 371C1249.79 371.013 1249.93 371.08 1250.02 371.2C1250.11 371.307 1250.16 371.44 1250.16 371.6V384.4C1250.16 384.56 1250.1 384.7 1249.98 384.82C1249.86 384.94 1249.71 385 1249.52 385ZM1257.94 370.78C1258.73 370.78 1259.41 370.92 1259.98 371.2C1260.57 371.48 1261.05 371.86 1261.42 372.34C1261.8 372.807 1262.08 373.34 1262.26 373.94C1262.45 374.54 1262.54 375.153 1262.54 375.78C1262.54 376.42 1262.46 377.107 1262.28 377.84C1262.12 378.56 1261.88 379.293 1261.54 380.04C1261.22 380.773 1260.82 381.473 1260.32 382.14C1259.84 382.807 1259.28 383.407 1258.62 383.94C1257.97 384.473 1257.24 384.887 1256.44 385.18C1256.34 385.207 1256.25 385.22 1256.18 385.22C1256.02 385.22 1255.88 385.16 1255.74 385.04C1255.62 384.933 1255.56 384.787 1255.56 384.6C1255.56 384.467 1255.6 384.353 1255.68 384.26C1255.76 384.153 1255.88 384.073 1256.04 384.02C1256.8 383.7 1257.54 383.227 1258.24 382.6C1258.95 381.96 1259.56 381.227 1260.06 380.4C1260.58 379.56 1260.93 378.693 1261.1 377.8L1261.52 377.54C1261.3 377.967 1260.99 378.353 1260.6 378.7C1260.22 379.047 1259.78 379.32 1259.28 379.52C1258.8 379.707 1258.28 379.8 1257.7 379.8C1256.85 379.8 1256.11 379.593 1255.48 379.18C1254.87 378.753 1254.4 378.193 1254.06 377.5C1253.73 376.807 1253.56 376.06 1253.56 375.26C1253.56 374.473 1253.75 373.74 1254.12 373.06C1254.51 372.38 1255.03 371.833 1255.68 371.42C1256.35 370.993 1257.1 370.78 1257.94 370.78ZM1257.98 371.94C1257.36 371.94 1256.8 372.08 1256.32 372.36C1255.84 372.64 1255.46 373.033 1255.18 373.54C1254.92 374.033 1254.78 374.607 1254.78 375.26C1254.78 375.847 1254.9 376.4 1255.12 376.92C1255.36 377.44 1255.72 377.86 1256.18 378.18C1256.65 378.487 1257.22 378.64 1257.88 378.64C1258.6 378.64 1259.22 378.487 1259.72 378.18C1260.23 377.86 1260.62 377.44 1260.9 376.92C1261.18 376.4 1261.32 375.827 1261.32 375.2C1261.32 374.627 1261.19 374.093 1260.92 373.6C1260.66 373.107 1260.28 372.707 1259.78 372.4C1259.29 372.093 1258.69 371.94 1257.98 371.94ZM1281.63 370.96C1281.81 370.96 1281.95 371.013 1282.07 371.12C1282.21 371.213 1282.27 371.36 1282.27 371.56C1282.27 371.627 1282.26 371.713 1282.23 371.82L1277.81 384.62C1277.77 384.74 1277.7 384.833 1277.59 384.9C1277.49 384.967 1277.38 385 1277.27 385C1277.14 385 1277.02 384.973 1276.91 384.92C1276.81 384.853 1276.73 384.753 1276.67 384.62L1273.13 375.86L1273.29 375.9L1269.75 384.62C1269.7 384.753 1269.61 384.853 1269.49 384.92C1269.39 384.973 1269.27 385 1269.15 385C1269.05 385 1268.94 384.967 1268.83 384.9C1268.74 384.833 1268.67 384.74 1268.63 384.62L1264.21 371.82C1264.17 371.713 1264.15 371.633 1264.15 371.58C1264.15 371.38 1264.23 371.227 1264.37 371.12C1264.52 371.013 1264.67 370.96 1264.81 370.96C1264.95 370.96 1265.07 370.993 1265.17 371.06C1265.28 371.127 1265.35 371.22 1265.39 371.34L1269.41 383.06L1269.19 383.08L1272.67 374.4C1272.71 374.28 1272.78 374.187 1272.87 374.12C1272.98 374.04 1273.1 374.007 1273.23 374.02C1273.37 374.007 1273.48 374.04 1273.57 374.12C1273.68 374.187 1273.76 374.28 1273.81 374.4L1277.25 383.04L1277.03 383.12L1281.03 371.34C1281.07 371.22 1281.15 371.127 1281.25 371.06C1281.36 370.993 1281.49 370.96 1281.63 370.96ZM1290.12 382.94C1290.19 382.94 1290.25 382.953 1290.32 382.98C1290.4 383.007 1290.49 383.067 1290.6 383.16C1290.88 383.453 1291.21 383.68 1291.6 383.84C1291.99 383.987 1292.43 384.06 1292.92 384.06C1293.57 384.06 1294.17 383.913 1294.7 383.62C1295.25 383.327 1295.68 382.92 1296 382.4C1296.32 381.867 1296.48 381.26 1296.48 380.58C1296.48 379.807 1296.31 379.187 1295.96 378.72C1295.63 378.24 1295.19 377.887 1294.66 377.66C1294.14 377.42 1293.61 377.3 1293.06 377.3C1292.91 377.3 1292.77 377.313 1292.62 377.34C1292.49 377.353 1292.36 377.373 1292.24 377.4C1292.12 377.427 1292.03 377.44 1291.96 377.44C1291.79 377.44 1291.65 377.387 1291.56 377.28C1291.47 377.16 1291.42 377.013 1291.42 376.84C1291.42 376.747 1291.44 376.667 1291.48 376.6C1291.52 376.52 1291.57 376.433 1291.64 376.34L1295.7 371.92L1295.94 372.24H1289.88C1289.72 372.24 1289.58 372.187 1289.46 372.08C1289.35 371.96 1289.3 371.82 1289.3 371.66C1289.3 371.5 1289.35 371.367 1289.46 371.26C1289.58 371.153 1289.72 371.1 1289.88 371.1H1296.6C1296.83 371.1 1296.99 371.173 1297.08 371.32C1297.17 371.453 1297.22 371.587 1297.22 371.72C1297.22 371.8 1297.2 371.88 1297.16 371.96C1297.12 372.027 1297.07 372.1 1297 372.18L1292.94 376.6L1292.5 376.34C1292.54 376.3 1292.67 376.26 1292.9 376.22C1293.14 376.167 1293.33 376.14 1293.46 376.14C1294.19 376.14 1294.88 376.313 1295.52 376.66C1296.17 377.007 1296.7 377.507 1297.1 378.16C1297.51 378.8 1297.72 379.593 1297.72 380.54C1297.72 381.473 1297.5 382.293 1297.06 383C1296.62 383.693 1296.03 384.233 1295.28 384.62C1294.53 385.007 1293.71 385.2 1292.8 385.2C1292.25 385.2 1291.71 385.107 1291.18 384.92C1290.65 384.733 1290.18 384.453 1289.78 384.08C1289.69 384 1289.62 383.92 1289.58 383.84C1289.54 383.76 1289.52 383.68 1289.52 383.6C1289.52 383.44 1289.57 383.293 1289.68 383.16C1289.8 383.013 1289.95 382.94 1290.12 382.94ZM1306.17 385C1305.99 385 1305.85 384.94 1305.75 384.82C1305.64 384.7 1305.59 384.56 1305.59 384.4V372.66L1305.85 372.82L1300.59 379.78L1300.53 379.56H1308.21C1308.37 379.56 1308.5 379.613 1308.61 379.72C1308.73 379.827 1308.79 379.96 1308.79 380.12C1308.79 380.28 1308.73 380.413 1308.61 380.52C1308.5 380.627 1308.37 380.68 1308.21 380.68H1299.71C1299.55 380.68 1299.41 380.62 1299.29 380.5C1299.17 380.367 1299.11 380.22 1299.11 380.06C1299.11 379.913 1299.15 379.78 1299.25 379.66L1305.69 371.24C1305.75 371.147 1305.83 371.087 1305.93 371.06C1306.03 371.02 1306.12 371 1306.19 371C1306.36 371 1306.5 371.06 1306.61 371.18C1306.73 371.3 1306.79 371.44 1306.79 371.6V384.4C1306.79 384.56 1306.73 384.7 1306.61 384.82C1306.49 384.94 1306.34 385 1306.17 385ZM1315.42 385C1315.23 385 1315.08 384.94 1314.96 384.82C1314.85 384.7 1314.8 384.56 1314.8 384.4V371.66H1316.04V384.4C1316.04 384.56 1315.98 384.7 1315.86 384.82C1315.74 384.94 1315.59 385 1315.42 385ZM1310.66 372.14C1310.5 372.14 1310.36 372.087 1310.24 371.98C1310.12 371.873 1310.06 371.733 1310.06 371.56C1310.06 371.4 1310.12 371.267 1310.24 371.16C1310.36 371.053 1310.5 371 1310.66 371H1320.18C1320.34 371 1320.48 371.053 1320.6 371.16C1320.72 371.267 1320.78 371.407 1320.78 371.58C1320.78 371.753 1320.72 371.893 1320.6 372C1320.48 372.093 1320.34 372.14 1320.18 372.14H1310.66ZM1323.97 371C1324.13 371 1324.27 371.06 1324.39 371.18C1324.52 371.3 1324.59 371.447 1324.59 371.62V384.38C1324.57 384.553 1324.5 384.7 1324.37 384.82C1324.25 384.94 1324.11 385 1323.95 385C1323.76 385 1323.61 384.94 1323.49 384.82C1323.38 384.7 1323.33 384.553 1323.33 384.38V371.62C1323.33 371.447 1323.39 371.3 1323.51 371.18C1323.63 371.06 1323.78 371 1323.97 371ZM1333.35 371C1333.53 371 1333.68 371.06 1333.79 371.18C1333.91 371.3 1333.97 371.447 1333.97 371.62V384.38C1333.95 384.553 1333.89 384.7 1333.77 384.82C1333.66 384.94 1333.51 385 1333.33 385C1333.15 385 1333.01 384.94 1332.89 384.82C1332.77 384.7 1332.71 384.553 1332.71 384.38V371.62C1332.71 371.447 1332.77 371.3 1332.89 371.18C1333.02 371.06 1333.17 371 1333.35 371ZM1323.87 377.26H1333.37L1333.35 378.42H1323.79L1323.87 377.26ZM1347.05 385.2C1346.04 385.213 1345.16 385.053 1344.41 384.72C1343.66 384.387 1342.95 383.887 1342.27 383.22C1342.2 383.167 1342.14 383.1 1342.09 383.02C1342.05 382.94 1342.03 382.847 1342.03 382.74C1342.03 382.58 1342.09 382.433 1342.21 382.3C1342.34 382.167 1342.49 382.1 1342.65 382.1C1342.81 382.1 1342.96 382.167 1343.09 382.3C1343.61 382.86 1344.2 383.287 1344.85 383.58C1345.52 383.873 1346.23 384.02 1346.99 384.02C1347.63 384.02 1348.2 383.92 1348.69 383.72C1349.2 383.52 1349.6 383.233 1349.89 382.86C1350.18 382.487 1350.33 382.053 1350.33 381.56C1350.33 380.947 1350.16 380.453 1349.83 380.08C1349.5 379.693 1349.06 379.38 1348.51 379.14C1347.96 378.887 1347.36 378.66 1346.69 378.46C1346.14 378.3 1345.62 378.12 1345.13 377.92C1344.64 377.707 1344.2 377.453 1343.81 377.16C1343.42 376.853 1343.12 376.48 1342.91 376.04C1342.7 375.6 1342.59 375.067 1342.59 374.44C1342.59 373.733 1342.78 373.107 1343.15 372.56C1343.52 372.013 1344.05 371.587 1344.73 371.28C1345.42 370.96 1346.22 370.8 1347.13 370.8C1347.92 370.8 1348.67 370.933 1349.39 371.2C1350.12 371.467 1350.7 371.86 1351.13 372.38C1351.33 372.593 1351.43 372.787 1351.43 372.96C1351.43 373.093 1351.36 373.227 1351.23 373.36C1351.1 373.493 1350.95 373.56 1350.79 373.56C1350.66 373.56 1350.54 373.513 1350.45 373.42C1350.22 373.14 1349.94 372.893 1349.59 372.68C1349.24 372.453 1348.86 372.28 1348.43 372.16C1348.02 372.04 1347.58 371.98 1347.13 371.98C1346.5 371.98 1345.94 372.08 1345.43 372.28C1344.94 372.467 1344.54 372.74 1344.25 373.1C1343.97 373.46 1343.83 373.893 1343.83 374.4C1343.83 374.96 1343.99 375.42 1344.31 375.78C1344.63 376.14 1345.05 376.44 1345.57 376.68C1346.09 376.907 1346.64 377.12 1347.23 377.32C1347.8 377.48 1348.35 377.667 1348.87 377.88C1349.4 378.08 1349.87 378.333 1350.27 378.64C1350.68 378.947 1351 379.333 1351.23 379.8C1351.47 380.267 1351.59 380.853 1351.59 381.56C1351.59 382.24 1351.4 382.853 1351.01 383.4C1350.62 383.947 1350.09 384.38 1349.41 384.7C1348.74 385.02 1347.96 385.187 1347.05 385.2ZM1358.58 385C1358.39 385 1358.24 384.94 1358.12 384.82C1358.01 384.7 1357.96 384.56 1357.96 384.4V371.66H1359.2V384.4C1359.2 384.56 1359.14 384.7 1359.02 384.82C1358.9 384.94 1358.75 385 1358.58 385ZM1353.82 372.14C1353.66 372.14 1353.52 372.087 1353.4 371.98C1353.28 371.873 1353.22 371.733 1353.22 371.56C1353.22 371.4 1353.28 371.267 1353.4 371.16C1353.52 371.053 1353.66 371 1353.82 371H1363.34C1363.5 371 1363.64 371.053 1363.76 371.16C1363.88 371.267 1363.94 371.407 1363.94 371.58C1363.94 371.753 1363.88 371.893 1363.76 372C1363.64 372.093 1363.5 372.14 1363.34 372.14H1353.82ZM1375.82 385.2C1374.8 385.213 1373.92 385.053 1373.18 384.72C1372.43 384.387 1371.72 383.887 1371.04 383.22C1370.97 383.167 1370.91 383.1 1370.86 383.02C1370.82 382.94 1370.8 382.847 1370.8 382.74C1370.8 382.58 1370.86 382.433 1370.98 382.3C1371.11 382.167 1371.26 382.1 1371.42 382.1C1371.58 382.1 1371.72 382.167 1371.86 382.3C1372.38 382.86 1372.96 383.287 1373.62 383.58C1374.28 383.873 1375 384.02 1375.76 384.02C1376.4 384.02 1376.96 383.92 1377.46 383.72C1377.96 383.52 1378.36 383.233 1378.66 382.86C1378.95 382.487 1379.1 382.053 1379.1 381.56C1379.1 380.947 1378.93 380.453 1378.6 380.08C1378.26 379.693 1377.82 379.38 1377.28 379.14C1376.73 378.887 1376.12 378.66 1375.46 378.46C1374.91 378.3 1374.39 378.12 1373.9 377.92C1373.4 377.707 1372.96 377.453 1372.58 377.16C1372.19 376.853 1371.89 376.48 1371.68 376.04C1371.46 375.6 1371.36 375.067 1371.36 374.44C1371.36 373.733 1371.54 373.107 1371.92 372.56C1372.29 372.013 1372.82 371.587 1373.5 371.28C1374.19 370.96 1374.99 370.8 1375.9 370.8C1376.68 370.8 1377.44 370.933 1378.16 371.2C1378.89 371.467 1379.47 371.86 1379.9 372.38C1380.1 372.593 1380.2 372.787 1380.2 372.96C1380.2 373.093 1380.13 373.227 1380 373.36C1379.86 373.493 1379.72 373.56 1379.56 373.56C1379.42 373.56 1379.31 373.513 1379.22 373.42C1378.99 373.14 1378.7 372.893 1378.36 372.68C1378.01 372.453 1377.62 372.28 1377.2 372.16C1376.78 372.04 1376.35 371.98 1375.9 371.98C1375.27 371.98 1374.7 372.08 1374.2 372.28C1373.7 372.467 1373.31 372.74 1373.02 373.1C1372.74 373.46 1372.6 373.893 1372.6 374.4C1372.6 374.96 1372.76 375.42 1373.08 375.78C1373.4 376.14 1373.82 376.44 1374.34 376.68C1374.86 376.907 1375.41 377.12 1376 377.32C1376.57 377.48 1377.12 377.667 1377.64 377.88C1378.17 378.08 1378.64 378.333 1379.04 378.64C1379.45 378.947 1379.77 379.333 1380 379.8C1380.24 380.267 1380.36 380.853 1380.36 381.56C1380.36 382.24 1380.16 382.853 1379.78 383.4C1379.39 383.947 1378.86 384.38 1378.18 384.7C1377.51 385.02 1376.72 385.187 1375.82 385.2ZM1387.35 385C1387.16 385 1387.01 384.94 1386.89 384.82C1386.78 384.7 1386.73 384.56 1386.73 384.4V371.66H1387.97V384.4C1387.97 384.56 1387.91 384.7 1387.79 384.82C1387.67 384.94 1387.52 385 1387.35 385ZM1382.59 372.14C1382.43 372.14 1382.29 372.087 1382.17 371.98C1382.05 371.873 1381.99 371.733 1381.99 371.56C1381.99 371.4 1382.05 371.267 1382.17 371.16C1382.29 371.053 1382.43 371 1382.59 371H1392.11C1392.27 371 1392.41 371.053 1392.53 371.16C1392.65 371.267 1392.71 371.407 1392.71 371.58C1392.71 371.753 1392.65 371.893 1392.53 372C1392.41 372.093 1392.27 372.14 1392.11 372.14H1382.59ZM1395.86 371H1403.2C1403.36 371 1403.5 371.06 1403.62 371.18C1403.74 371.287 1403.8 371.427 1403.8 371.6C1403.8 371.773 1403.74 371.913 1403.62 372.02C1403.5 372.127 1403.36 372.18 1403.2 372.18H1396.32L1396.52 371.84V377.46L1396.3 377.2H1402.3C1402.46 377.2 1402.6 377.26 1402.72 377.38C1402.84 377.5 1402.9 377.64 1402.9 377.8C1402.9 377.973 1402.84 378.113 1402.72 378.22C1402.6 378.327 1402.46 378.38 1402.3 378.38H1396.34L1396.52 378.18V383.94L1396.42 383.82H1403.2C1403.36 383.82 1403.5 383.88 1403.62 384C1403.74 384.12 1403.8 384.26 1403.8 384.42C1403.8 384.593 1403.74 384.733 1403.62 384.84C1403.5 384.947 1403.36 385 1403.2 385H1395.86C1395.7 385 1395.56 384.94 1395.44 384.82C1395.32 384.7 1395.26 384.56 1395.26 384.4V371.6C1395.26 371.44 1395.32 371.3 1395.44 371.18C1395.56 371.06 1395.7 371 1395.86 371ZM1414.73 385C1414.55 385 1414.39 384.94 1414.27 384.82C1414.15 384.7 1414.09 384.56 1414.09 384.4V372.36L1414.31 372.56L1411.65 374.34C1411.55 374.42 1411.43 374.46 1411.31 374.46C1411.15 374.46 1411.01 374.393 1410.87 374.26C1410.75 374.127 1410.69 373.98 1410.69 373.82C1410.69 373.607 1410.8 373.44 1411.01 373.32L1414.35 371.1C1414.43 371.047 1414.51 371.013 1414.59 371C1414.69 370.987 1414.77 370.987 1414.83 371C1415.01 371.013 1415.14 371.08 1415.23 371.2C1415.33 371.307 1415.37 371.44 1415.37 371.6V384.4C1415.37 384.56 1415.31 384.7 1415.19 384.82C1415.07 384.94 1414.92 385 1414.73 385ZM1423.56 385.2C1422.49 385.2 1421.6 384.88 1420.88 384.24C1420.16 383.6 1419.62 382.74 1419.26 381.66C1418.9 380.567 1418.72 379.347 1418.72 378C1418.72 376.64 1418.9 375.42 1419.26 374.34C1419.62 373.247 1420.16 372.387 1420.88 371.76C1421.6 371.12 1422.49 370.8 1423.56 370.8C1424.65 370.8 1425.55 371.12 1426.26 371.76C1426.98 372.387 1427.52 373.247 1427.88 374.34C1428.24 375.42 1428.42 376.64 1428.42 378C1428.42 379.347 1428.24 380.567 1427.88 381.66C1427.52 382.74 1426.98 383.6 1426.26 384.24C1425.55 384.88 1424.65 385.2 1423.56 385.2ZM1423.56 383.96C1424.34 383.96 1425 383.713 1425.52 383.22C1426.05 382.727 1426.45 382.033 1426.72 381.14C1427 380.233 1427.14 379.187 1427.14 378C1427.14 376.8 1427 375.753 1426.72 374.86C1426.45 373.953 1426.05 373.253 1425.52 372.76C1425 372.267 1424.34 372.02 1423.56 372.02C1422.78 372.02 1422.13 372.267 1421.6 372.76C1421.08 373.253 1420.68 373.953 1420.4 374.86C1420.13 375.753 1420 376.8 1420 378C1420 379.187 1420.13 380.233 1420.4 381.14C1420.68 382.033 1421.08 382.727 1421.6 383.22C1422.13 383.713 1422.78 383.96 1423.56 383.96ZM1434.03 385C1433.85 385 1433.69 384.94 1433.57 384.82C1433.45 384.7 1433.39 384.56 1433.39 384.4V372.36L1433.61 372.56L1430.95 374.34C1430.85 374.42 1430.73 374.46 1430.61 374.46C1430.45 374.46 1430.31 374.393 1430.17 374.26C1430.05 374.127 1429.99 373.98 1429.99 373.82C1429.99 373.607 1430.1 373.44 1430.31 373.32L1433.65 371.1C1433.73 371.047 1433.81 371.013 1433.89 371C1433.99 370.987 1434.07 370.987 1434.13 371C1434.31 371.013 1434.44 371.08 1434.53 371.2C1434.63 371.307 1434.67 371.44 1434.67 371.6V384.4C1434.67 384.56 1434.61 384.7 1434.49 384.82C1434.37 384.94 1434.22 385 1434.03 385ZM1444.19 377.96L1444.13 377.78C1444.59 377.953 1445 378.213 1445.37 378.56C1445.75 378.893 1446.05 379.293 1446.27 379.76C1446.5 380.213 1446.61 380.713 1446.61 381.26C1446.61 381.98 1446.42 382.633 1446.03 383.22C1445.66 383.807 1445.15 384.273 1444.49 384.62C1443.84 384.967 1443.11 385.14 1442.31 385.14C1441.5 385.14 1440.77 384.967 1440.11 384.62C1439.47 384.273 1438.96 383.807 1438.57 383.22C1438.2 382.633 1438.01 381.98 1438.01 381.26C1438.01 380.673 1438.13 380.153 1438.35 379.7C1438.59 379.233 1438.9 378.84 1439.27 378.52C1439.66 378.2 1440.06 377.953 1440.47 377.78L1440.41 377.98C1440.05 377.807 1439.71 377.573 1439.39 377.28C1439.09 376.973 1438.83 376.613 1438.63 376.2C1438.43 375.773 1438.33 375.307 1438.33 374.8C1438.33 374.08 1438.51 373.433 1438.85 372.86C1439.21 372.287 1439.69 371.833 1440.29 371.5C1440.91 371.167 1441.58 371 1442.31 371C1443.05 371 1443.71 371.167 1444.29 371.5C1444.89 371.833 1445.37 372.287 1445.71 372.86C1446.07 373.433 1446.25 374.08 1446.25 374.8C1446.25 375.32 1446.15 375.787 1445.95 376.2C1445.75 376.613 1445.49 376.973 1445.17 377.28C1444.85 377.573 1444.53 377.8 1444.19 377.96ZM1439.57 374.8C1439.57 375.333 1439.7 375.8 1439.95 376.2C1440.21 376.6 1440.54 376.913 1440.95 377.14C1441.37 377.367 1441.82 377.48 1442.31 377.48C1442.79 377.48 1443.24 377.367 1443.65 377.14C1444.07 376.913 1444.39 376.6 1444.63 376.2C1444.89 375.8 1445.01 375.333 1445.01 374.8C1445.01 374.013 1444.76 373.373 1444.25 372.88C1443.75 372.387 1443.1 372.14 1442.31 372.14C1441.5 372.14 1440.84 372.387 1440.33 372.88C1439.83 373.373 1439.57 374.013 1439.57 374.8ZM1442.31 384C1443.22 384 1443.95 383.74 1444.51 383.22C1445.09 382.7 1445.37 382.047 1445.37 381.26C1445.37 380.727 1445.23 380.247 1444.95 379.82C1444.67 379.393 1444.3 379.06 1443.83 378.82C1443.37 378.58 1442.86 378.46 1442.31 378.46C1441.77 378.46 1441.26 378.58 1440.79 378.82C1440.33 379.06 1439.95 379.393 1439.67 379.82C1439.39 380.247 1439.25 380.727 1439.25 381.26C1439.25 382.047 1439.53 382.7 1440.09 383.22C1440.65 383.74 1441.39 384 1442.31 384ZM1450.89 385.16C1450.89 385.52 1450.79 385.867 1450.57 386.2C1450.36 386.547 1450.1 386.827 1449.79 387.04C1449.49 387.267 1449.19 387.38 1448.89 387.38C1448.79 387.38 1448.68 387.347 1448.57 387.28C1448.48 387.213 1448.43 387.087 1448.43 386.9C1448.43 386.713 1448.49 386.607 1448.61 386.58C1448.75 386.567 1448.91 386.507 1449.09 386.4C1449.32 386.293 1449.49 386.16 1449.61 386C1449.73 385.84 1449.79 385.653 1449.79 385.44C1449.79 385.267 1449.74 385.133 1449.63 385.04C1449.54 384.947 1449.43 384.9 1449.29 384.9C1449.2 384.9 1449.11 384.913 1449.01 384.94C1448.92 384.967 1448.83 385.007 1448.75 385.06C1448.69 384.993 1448.63 384.92 1448.57 384.84C1448.52 384.76 1448.5 384.66 1448.51 384.54C1448.54 384.313 1448.66 384.12 1448.87 383.96C1449.1 383.787 1449.36 383.7 1449.65 383.7C1450.01 383.7 1450.31 383.847 1450.53 384.14C1450.77 384.433 1450.89 384.773 1450.89 385.16ZM1469.19 371C1469.36 371 1469.5 371.053 1469.59 371.16C1469.7 371.267 1469.75 371.4 1469.75 371.56V384.36C1469.75 384.56 1469.68 384.72 1469.55 384.84C1469.43 384.947 1469.29 385 1469.13 385C1469.05 385 1468.96 384.987 1468.87 384.96C1468.78 384.92 1468.7 384.867 1468.65 384.8L1459.73 372.78L1460.07 372.6V384.46C1460.07 384.607 1460.02 384.733 1459.91 384.84C1459.8 384.947 1459.67 385 1459.51 385C1459.34 385 1459.2 384.947 1459.09 384.84C1459 384.733 1458.95 384.607 1458.95 384.46V371.6C1458.95 371.4 1459.01 371.253 1459.13 371.16C1459.25 371.053 1459.38 371 1459.53 371C1459.61 371 1459.7 371.02 1459.79 371.06C1459.88 371.087 1459.96 371.14 1460.01 371.22L1468.83 383.1L1468.63 383.46V371.56C1468.63 371.4 1468.68 371.267 1468.79 371.16C1468.91 371.053 1469.04 371 1469.19 371ZM1481.84 370.92C1482.01 370.92 1482.15 370.987 1482.26 371.12C1482.38 371.24 1482.44 371.373 1482.44 371.52C1482.44 371.587 1482.43 371.653 1482.4 371.72C1482.39 371.773 1482.36 371.833 1482.32 371.9L1477.62 378.36L1477.86 377.58V384.4C1477.86 384.56 1477.8 384.7 1477.68 384.82C1477.56 384.94 1477.41 385 1477.24 385C1477.07 385 1476.92 384.94 1476.8 384.82C1476.69 384.7 1476.64 384.56 1476.64 384.4V377.72L1476.74 378.2L1472.16 371.94C1472.11 371.873 1472.07 371.807 1472.04 371.74C1472.01 371.66 1472 371.587 1472 371.52C1472 371.347 1472.07 371.207 1472.2 371.1C1472.35 370.98 1472.49 370.92 1472.64 370.92C1472.84 370.92 1473.01 371.013 1473.14 371.2L1477.44 377.06L1477.14 377.02L1481.32 371.2C1481.45 371.013 1481.63 370.92 1481.84 370.92ZM1485.97 385.16C1485.97 385.52 1485.87 385.867 1485.65 386.2C1485.44 386.547 1485.18 386.827 1484.87 387.04C1484.57 387.267 1484.27 387.38 1483.97 387.38C1483.87 387.38 1483.76 387.347 1483.65 387.28C1483.56 387.213 1483.51 387.087 1483.51 386.9C1483.51 386.713 1483.57 386.607 1483.69 386.58C1483.83 386.567 1483.99 386.507 1484.17 386.4C1484.4 386.293 1484.57 386.16 1484.69 386C1484.81 385.84 1484.87 385.653 1484.87 385.44C1484.87 385.267 1484.82 385.133 1484.71 385.04C1484.62 384.947 1484.51 384.9 1484.37 384.9C1484.28 384.9 1484.19 384.913 1484.09 384.94C1484 384.967 1483.91 385.007 1483.83 385.06C1483.77 384.993 1483.71 384.92 1483.65 384.84C1483.6 384.76 1483.58 384.66 1483.59 384.54C1483.62 384.313 1483.74 384.12 1483.95 383.96C1484.18 383.787 1484.44 383.7 1484.73 383.7C1485.09 383.7 1485.39 383.847 1485.61 384.14C1485.85 384.433 1485.97 384.773 1485.97 385.16ZM1503.93 371C1504.12 371 1504.26 371.06 1504.37 371.18C1504.48 371.287 1504.53 371.427 1504.53 371.6V379.88C1504.53 380.867 1504.3 381.76 1503.83 382.56C1503.36 383.36 1502.74 384 1501.95 384.48C1501.16 384.947 1500.28 385.18 1499.29 385.18C1498.3 385.18 1497.41 384.947 1496.61 384.48C1495.82 384 1495.2 383.36 1494.73 382.56C1494.26 381.76 1494.03 380.867 1494.03 379.88V371.6C1494.03 371.427 1494.08 371.287 1494.19 371.18C1494.31 371.06 1494.47 371 1494.67 371C1494.83 371 1494.97 371.06 1495.09 371.18C1495.21 371.287 1495.27 371.427 1495.27 371.6V379.88C1495.27 380.653 1495.45 381.347 1495.81 381.96C1496.18 382.573 1496.68 383.067 1497.29 383.44C1497.9 383.8 1498.57 383.98 1499.29 383.98C1500.04 383.98 1500.72 383.8 1501.33 383.44C1501.94 383.067 1502.43 382.573 1502.79 381.96C1503.16 381.347 1503.35 380.653 1503.35 379.88V371.6C1503.35 371.427 1503.4 371.287 1503.51 371.18C1503.62 371.06 1503.76 371 1503.93 371ZM1511.95 385.2C1510.94 385.213 1510.06 385.053 1509.31 384.72C1508.56 384.387 1507.85 383.887 1507.17 383.22C1507.1 383.167 1507.04 383.1 1506.99 383.02C1506.95 382.94 1506.93 382.847 1506.93 382.74C1506.93 382.58 1506.99 382.433 1507.11 382.3C1507.24 382.167 1507.39 382.1 1507.55 382.1C1507.71 382.1 1507.86 382.167 1507.99 382.3C1508.51 382.86 1509.1 383.287 1509.75 383.58C1510.42 383.873 1511.13 384.02 1511.89 384.02C1512.53 384.02 1513.1 383.92 1513.59 383.72C1514.1 383.52 1514.5 383.233 1514.79 382.86C1515.08 382.487 1515.23 382.053 1515.23 381.56C1515.23 380.947 1515.06 380.453 1514.73 380.08C1514.4 379.693 1513.96 379.38 1513.41 379.14C1512.86 378.887 1512.26 378.66 1511.59 378.46C1511.04 378.3 1510.52 378.12 1510.03 377.92C1509.54 377.707 1509.1 377.453 1508.71 377.16C1508.32 376.853 1508.02 376.48 1507.81 376.04C1507.6 375.6 1507.49 375.067 1507.49 374.44C1507.49 373.733 1507.68 373.107 1508.05 372.56C1508.42 372.013 1508.95 371.587 1509.63 371.28C1510.32 370.96 1511.12 370.8 1512.03 370.8C1512.82 370.8 1513.57 370.933 1514.29 371.2C1515.02 371.467 1515.6 371.86 1516.03 372.38C1516.23 372.593 1516.33 372.787 1516.33 372.96C1516.33 373.093 1516.26 373.227 1516.13 373.36C1516 373.493 1515.85 373.56 1515.69 373.56C1515.56 373.56 1515.44 373.513 1515.35 373.42C1515.12 373.14 1514.84 372.893 1514.49 372.68C1514.14 372.453 1513.76 372.28 1513.33 372.16C1512.92 372.04 1512.48 371.98 1512.03 371.98C1511.4 371.98 1510.84 372.08 1510.33 372.28C1509.84 372.467 1509.44 372.74 1509.15 373.1C1508.87 373.46 1508.73 373.893 1508.73 374.4C1508.73 374.96 1508.89 375.42 1509.21 375.78C1509.53 376.14 1509.95 376.44 1510.47 376.68C1510.99 376.907 1511.54 377.12 1512.13 377.32C1512.7 377.48 1513.25 377.667 1513.77 377.88C1514.3 378.08 1514.77 378.333 1515.17 378.64C1515.58 378.947 1515.9 379.333 1516.13 379.8C1516.37 380.267 1516.49 380.853 1516.49 381.56C1516.49 382.24 1516.3 382.853 1515.91 383.4C1515.52 383.947 1514.99 384.38 1514.31 384.7C1513.64 385.02 1512.86 385.187 1511.95 385.2ZM1524 372.54L1519.14 384.62C1519.09 384.753 1519.01 384.853 1518.92 384.92C1518.83 384.987 1518.72 385.02 1518.6 385.02C1518.41 385.02 1518.27 384.973 1518.18 384.88C1518.09 384.773 1518.03 384.647 1518.02 384.5C1518.01 384.433 1518.01 384.353 1518.04 384.26L1523.32 371.34C1523.39 371.193 1523.47 371.093 1523.56 371.04C1523.67 370.973 1523.79 370.94 1523.92 370.94C1524.05 370.94 1524.17 370.98 1524.26 371.06C1524.37 371.127 1524.45 371.22 1524.5 371.34L1529.76 384.2C1529.79 384.28 1529.8 384.36 1529.8 384.44C1529.8 384.627 1529.74 384.773 1529.62 384.88C1529.5 384.973 1529.36 385.02 1529.2 385.02C1529.07 385.02 1528.95 384.987 1528.84 384.92C1528.75 384.84 1528.67 384.74 1528.62 384.62L1523.64 372.46L1524 372.54ZM1520.3 380.96L1520.8 379.78H1527L1527.24 380.96H1520.3ZM1251.08 405.54C1251.72 405.54 1252.31 405.613 1252.84 405.76C1253.37 405.893 1253.8 406.08 1254.12 406.32C1254.45 406.56 1254.62 406.82 1254.62 407.1C1254.62 407.233 1254.57 407.367 1254.48 407.5C1254.39 407.62 1254.26 407.68 1254.1 407.68C1253.94 407.68 1253.81 407.64 1253.7 407.56C1253.61 407.48 1253.51 407.387 1253.4 407.28C1253.31 407.173 1253.17 407.073 1252.98 406.98C1252.81 406.9 1252.56 406.827 1252.24 406.76C1251.92 406.693 1251.55 406.66 1251.14 406.66C1250.39 406.66 1249.72 406.847 1249.12 407.22C1248.52 407.593 1248.05 408.1 1247.7 408.74C1247.35 409.367 1247.18 410.073 1247.18 410.86C1247.18 411.66 1247.35 412.38 1247.68 413.02C1248.01 413.66 1248.47 414.167 1249.06 414.54C1249.65 414.9 1250.33 415.08 1251.12 415.08C1251.65 415.08 1252.07 415.033 1252.36 414.94C1252.65 414.847 1252.91 414.74 1253.12 414.62C1253.37 414.473 1253.55 414.333 1253.66 414.2C1253.78 414.053 1253.93 413.98 1254.12 413.98C1254.29 413.98 1254.42 414.033 1254.5 414.14C1254.59 414.233 1254.64 414.36 1254.64 414.52C1254.64 414.733 1254.48 414.973 1254.16 415.24C1253.85 415.493 1253.43 415.72 1252.88 415.92C1252.33 416.107 1251.71 416.2 1251 416.2C1250 416.2 1249.12 415.967 1248.36 415.5C1247.61 415.033 1247.03 414.4 1246.6 413.6C1246.19 412.787 1245.98 411.873 1245.98 410.86C1245.98 409.887 1246.19 409 1246.62 408.2C1247.05 407.4 1247.64 406.76 1248.4 406.28C1249.17 405.787 1250.07 405.54 1251.08 405.54ZM1266.45 410.88C1266.45 411.893 1266.23 412.807 1265.79 413.62C1265.35 414.42 1264.75 415.053 1263.99 415.52C1263.23 415.973 1262.36 416.2 1261.39 416.2C1260.44 416.2 1259.58 415.973 1258.81 415.52C1258.05 415.053 1257.44 414.42 1256.99 413.62C1256.55 412.807 1256.33 411.893 1256.33 410.88C1256.33 409.853 1256.55 408.94 1256.99 408.14C1257.44 407.34 1258.05 406.707 1258.81 406.24C1259.58 405.773 1260.44 405.54 1261.39 405.54C1262.36 405.54 1263.23 405.773 1263.99 406.24C1264.75 406.707 1265.35 407.34 1265.79 408.14C1266.23 408.94 1266.45 409.853 1266.45 410.88ZM1265.25 410.88C1265.25 410.067 1265.08 409.347 1264.75 408.72C1264.42 408.08 1263.96 407.58 1263.37 407.22C1262.8 406.847 1262.14 406.66 1261.39 406.66C1260.67 406.66 1260.02 406.847 1259.43 407.22C1258.84 407.58 1258.38 408.08 1258.03 408.72C1257.7 409.347 1257.53 410.067 1257.53 410.88C1257.53 411.693 1257.7 412.413 1258.03 413.04C1258.38 413.667 1258.84 414.167 1259.43 414.54C1260.02 414.9 1260.67 415.08 1261.39 415.08C1262.14 415.08 1262.8 414.9 1263.37 414.54C1263.96 414.167 1264.42 413.667 1264.75 413.04C1265.08 412.413 1265.25 411.693 1265.25 410.88ZM1273.82 405.54C1274.7 405.54 1275.4 405.72 1275.92 406.08C1276.46 406.427 1276.84 406.907 1277.06 407.52C1277.3 408.12 1277.42 408.787 1277.42 409.52V415.4C1277.42 415.56 1277.36 415.7 1277.24 415.82C1277.12 415.94 1276.98 416 1276.82 416C1276.64 416 1276.49 415.94 1276.38 415.82C1276.28 415.7 1276.22 415.56 1276.22 415.4V409.58C1276.22 409.047 1276.14 408.56 1275.96 408.12C1275.79 407.68 1275.5 407.327 1275.1 407.06C1274.72 406.793 1274.2 406.66 1273.56 406.66C1272.99 406.66 1272.44 406.793 1271.92 407.06C1271.42 407.327 1271 407.68 1270.68 408.12C1270.36 408.56 1270.2 409.047 1270.2 409.58V415.4C1270.2 415.56 1270.14 415.7 1270.02 415.82C1269.9 415.94 1269.76 416 1269.6 416C1269.42 416 1269.27 415.94 1269.16 415.82C1269.06 415.7 1269 415.56 1269 415.4V406.44C1269 406.28 1269.06 406.14 1269.16 406.02C1269.28 405.9 1269.43 405.84 1269.6 405.84C1269.78 405.84 1269.92 405.9 1270.02 406.02C1270.14 406.14 1270.2 406.28 1270.2 406.44V408.12L1269.74 408.84C1269.77 408.413 1269.9 408.007 1270.14 407.62C1270.4 407.22 1270.72 406.867 1271.1 406.56C1271.49 406.24 1271.92 405.993 1272.38 405.82C1272.86 405.633 1273.34 405.54 1273.82 405.54ZM1279.9 405.82H1284.56C1284.72 405.82 1284.86 405.88 1284.96 406C1285.07 406.107 1285.12 406.24 1285.12 406.4C1285.12 406.547 1285.07 406.673 1284.96 406.78C1284.86 406.887 1284.72 406.94 1284.56 406.94H1279.9C1279.74 406.94 1279.6 406.887 1279.48 406.78C1279.38 406.66 1279.32 406.527 1279.32 406.38C1279.32 406.22 1279.38 406.087 1279.48 405.98C1279.6 405.873 1279.74 405.82 1279.9 405.82ZM1281.96 403C1282.14 403 1282.28 403.06 1282.38 403.18C1282.5 403.3 1282.56 403.44 1282.56 403.6V413.64C1282.56 414.013 1282.61 414.293 1282.7 414.48C1282.81 414.667 1282.94 414.793 1283.1 414.86C1283.26 414.913 1283.42 414.94 1283.58 414.94C1283.69 414.94 1283.78 414.927 1283.86 414.9C1283.96 414.86 1284.06 414.84 1284.16 414.84C1284.28 414.84 1284.38 414.887 1284.46 414.98C1284.56 415.073 1284.6 415.193 1284.6 415.34C1284.6 415.527 1284.5 415.687 1284.28 415.82C1284.07 415.94 1283.82 416 1283.52 416C1283.4 416 1283.22 415.993 1282.98 415.98C1282.74 415.953 1282.5 415.88 1282.24 415.76C1281.99 415.627 1281.78 415.4 1281.6 415.08C1281.44 414.76 1281.36 414.3 1281.36 413.7V403.6C1281.36 403.44 1281.42 403.3 1281.52 403.18C1281.64 403.06 1281.79 403 1281.96 403ZM1295.72 405.78C1295.9 405.78 1296.04 405.84 1296.14 405.96C1296.26 406.08 1296.32 406.227 1296.32 406.4V415.4C1296.32 415.56 1296.26 415.7 1296.14 415.82C1296.02 415.94 1295.88 416 1295.72 416C1295.55 416 1295.4 415.94 1295.28 415.82C1295.18 415.7 1295.12 415.56 1295.12 415.4V413.02L1295.46 412.86C1295.46 413.233 1295.36 413.613 1295.14 414C1294.94 414.387 1294.66 414.747 1294.3 415.08C1293.94 415.413 1293.52 415.687 1293.02 415.9C1292.54 416.1 1292.02 416.2 1291.46 416.2C1290.56 416.2 1289.74 415.967 1289.02 415.5C1288.32 415.033 1287.76 414.393 1287.34 413.58C1286.94 412.767 1286.74 411.853 1286.74 410.84C1286.74 409.8 1286.95 408.887 1287.36 408.1C1287.78 407.3 1288.34 406.673 1289.04 406.22C1289.75 405.767 1290.55 405.54 1291.44 405.54C1292.02 405.54 1292.55 405.64 1293.04 405.84C1293.55 406.04 1293.99 406.313 1294.36 406.66C1294.74 407.007 1295.02 407.407 1295.22 407.86C1295.44 408.3 1295.54 408.76 1295.54 409.24L1295.12 408.94V406.4C1295.12 406.227 1295.18 406.08 1295.28 405.96C1295.4 405.84 1295.55 405.78 1295.72 405.78ZM1291.56 415.08C1292.27 415.08 1292.9 414.9 1293.44 414.54C1293.99 414.167 1294.42 413.66 1294.72 413.02C1295.04 412.367 1295.2 411.64 1295.2 410.84C1295.2 410.053 1295.04 409.347 1294.72 408.72C1294.42 408.093 1293.99 407.593 1293.44 407.22C1292.9 406.847 1292.27 406.66 1291.56 406.66C1290.87 406.66 1290.24 406.84 1289.68 407.2C1289.14 407.56 1288.7 408.053 1288.38 408.68C1288.08 409.307 1287.92 410.027 1287.92 410.84C1287.92 411.64 1288.08 412.367 1288.38 413.02C1288.7 413.66 1289.14 414.167 1289.68 414.54C1290.23 414.9 1290.86 415.08 1291.56 415.08ZM1303.97 405.54C1304.61 405.54 1305.2 405.613 1305.73 405.76C1306.26 405.893 1306.69 406.08 1307.01 406.32C1307.34 406.56 1307.51 406.82 1307.51 407.1C1307.51 407.233 1307.46 407.367 1307.37 407.5C1307.28 407.62 1307.15 407.68 1306.99 407.68C1306.83 407.68 1306.7 407.64 1306.59 407.56C1306.5 407.48 1306.4 407.387 1306.29 407.28C1306.2 407.173 1306.06 407.073 1305.87 406.98C1305.7 406.9 1305.45 406.827 1305.13 406.76C1304.81 406.693 1304.44 406.66 1304.03 406.66C1303.28 406.66 1302.61 406.847 1302.01 407.22C1301.41 407.593 1300.94 408.1 1300.59 408.74C1300.24 409.367 1300.07 410.073 1300.07 410.86C1300.07 411.66 1300.24 412.38 1300.57 413.02C1300.9 413.66 1301.36 414.167 1301.95 414.54C1302.54 414.9 1303.22 415.08 1304.01 415.08C1304.54 415.08 1304.96 415.033 1305.25 414.94C1305.54 414.847 1305.8 414.74 1306.01 414.62C1306.26 414.473 1306.44 414.333 1306.55 414.2C1306.67 414.053 1306.82 413.98 1307.01 413.98C1307.18 413.98 1307.31 414.033 1307.39 414.14C1307.48 414.233 1307.53 414.36 1307.53 414.52C1307.53 414.733 1307.37 414.973 1307.05 415.24C1306.74 415.493 1306.32 415.72 1305.77 415.92C1305.22 416.107 1304.6 416.2 1303.89 416.2C1302.89 416.2 1302.01 415.967 1301.25 415.5C1300.5 415.033 1299.92 414.4 1299.49 413.6C1299.08 412.787 1298.87 411.873 1298.87 410.86C1298.87 409.887 1299.08 409 1299.51 408.2C1299.94 407.4 1300.53 406.76 1301.29 406.28C1302.06 405.787 1302.96 405.54 1303.97 405.54ZM1309.16 405.82H1313.82C1313.98 405.82 1314.12 405.88 1314.22 406C1314.33 406.107 1314.38 406.24 1314.38 406.4C1314.38 406.547 1314.33 406.673 1314.22 406.78C1314.12 406.887 1313.98 406.94 1313.82 406.94H1309.16C1309 406.94 1308.86 406.887 1308.74 406.78C1308.64 406.66 1308.58 406.527 1308.58 406.38C1308.58 406.22 1308.64 406.087 1308.74 405.98C1308.86 405.873 1309 405.82 1309.16 405.82ZM1311.22 403C1311.4 403 1311.54 403.06 1311.64 403.18C1311.76 403.3 1311.82 403.44 1311.82 403.6V413.64C1311.82 414.013 1311.87 414.293 1311.96 414.48C1312.07 414.667 1312.2 414.793 1312.36 414.86C1312.52 414.913 1312.68 414.94 1312.84 414.94C1312.95 414.94 1313.04 414.927 1313.12 414.9C1313.22 414.86 1313.32 414.84 1313.42 414.84C1313.54 414.84 1313.64 414.887 1313.72 414.98C1313.82 415.073 1313.86 415.193 1313.86 415.34C1313.86 415.527 1313.76 415.687 1313.54 415.82C1313.33 415.94 1313.08 416 1312.78 416C1312.66 416 1312.48 415.993 1312.24 415.98C1312 415.953 1311.76 415.88 1311.5 415.76C1311.25 415.627 1311.04 415.4 1310.86 415.08C1310.7 414.76 1310.62 414.3 1310.62 413.7V403.6C1310.62 403.44 1310.68 403.3 1310.78 403.18C1310.9 403.06 1311.05 403 1311.22 403ZM1328.8 414.9C1328.4 414.9 1328.05 414.82 1327.74 414.66C1327.43 414.5 1327.2 414.273 1327.04 413.98C1326.89 413.673 1326.85 413.327 1326.9 412.94L1327.08 411.56L1327.36 411.6C1327.08 412.32 1326.71 412.927 1326.26 413.42C1325.82 413.913 1325.33 414.287 1324.78 414.54C1324.25 414.78 1323.71 414.9 1323.18 414.9C1322.61 414.9 1322.1 414.753 1321.66 414.46C1321.22 414.153 1320.87 413.753 1320.62 413.26C1320.37 412.767 1320.24 412.213 1320.24 411.6C1320.24 410.973 1320.36 410.327 1320.6 409.66C1320.84 408.98 1321.17 408.347 1321.6 407.76C1322.04 407.173 1322.55 406.7 1323.14 406.34C1323.73 405.98 1324.37 405.8 1325.06 405.8C1325.86 405.8 1326.5 406.053 1326.98 406.56C1327.47 407.053 1327.77 407.66 1327.88 408.38L1327.5 409.38L1327.94 406.5C1327.97 406.353 1328.03 406.227 1328.12 406.12C1328.21 406.013 1328.36 405.96 1328.56 405.96C1328.79 405.96 1328.94 406.02 1329.02 406.14C1329.1 406.26 1329.12 406.44 1329.08 406.68L1328.14 412.68C1328.07 413.133 1328.14 413.46 1328.34 413.66C1328.54 413.86 1328.77 413.96 1329.02 413.96C1329.5 413.96 1329.95 413.793 1330.36 413.46C1330.79 413.113 1331.16 412.66 1331.48 412.1C1331.81 411.527 1332.07 410.893 1332.24 410.2C1332.43 409.493 1332.52 408.787 1332.52 408.08C1332.52 407.027 1332.27 406.1 1331.78 405.3C1331.3 404.5 1330.61 403.88 1329.7 403.44C1328.81 402.987 1327.75 402.76 1326.54 402.76C1325.17 402.76 1323.89 402.967 1322.72 403.38C1321.55 403.78 1320.52 404.38 1319.64 405.18C1318.76 405.967 1318.07 406.92 1317.56 408.04C1317.07 409.16 1316.82 410.44 1316.82 411.88C1316.82 412.667 1316.94 413.44 1317.18 414.2C1317.43 414.96 1317.81 415.647 1318.32 416.26C1318.84 416.887 1319.51 417.38 1320.34 417.74C1321.17 418.1 1322.15 418.28 1323.3 418.28C1324.03 418.28 1324.65 418.22 1325.16 418.1C1325.68 417.993 1326.15 417.847 1326.56 417.66C1326.97 417.487 1327.39 417.3 1327.8 417.1C1327.91 417.047 1328.01 417.027 1328.12 417.04C1328.24 417.067 1328.33 417.16 1328.4 417.32C1328.51 417.587 1328.4 417.8 1328.08 417.96C1327.51 418.24 1326.85 418.52 1326.1 418.8C1325.35 419.093 1324.42 419.24 1323.3 419.24C1321.95 419.24 1320.81 419.027 1319.86 418.6C1318.91 418.187 1318.14 417.627 1317.54 416.92C1316.95 416.213 1316.52 415.427 1316.24 414.56C1315.96 413.68 1315.82 412.787 1315.82 411.88C1315.82 410.32 1316.09 408.92 1316.64 407.68C1317.2 406.44 1317.97 405.38 1318.94 404.5C1319.93 403.62 1321.07 402.953 1322.36 402.5C1323.65 402.033 1325.05 401.8 1326.54 401.8C1328.06 401.8 1329.34 402.087 1330.38 402.66C1331.42 403.22 1332.2 403.98 1332.72 404.94C1333.25 405.887 1333.52 406.933 1333.52 408.08C1333.52 408.893 1333.4 409.707 1333.16 410.52C1332.93 411.32 1332.61 412.053 1332.18 412.72C1331.77 413.373 1331.27 413.9 1330.68 414.3C1330.11 414.7 1329.48 414.9 1328.8 414.9ZM1323.36 413.88C1323.83 413.88 1324.29 413.76 1324.76 413.52C1325.23 413.267 1325.65 412.933 1326.04 412.52C1326.43 412.093 1326.74 411.627 1326.98 411.12C1327.23 410.6 1327.37 410.073 1327.38 409.54C1327.45 408.993 1327.39 408.52 1327.22 408.12C1327.05 407.707 1326.77 407.387 1326.4 407.16C1326.04 406.933 1325.61 406.82 1325.1 406.82C1324.53 406.82 1324.01 406.973 1323.56 407.28C1323.11 407.573 1322.72 407.967 1322.4 408.46C1322.08 408.94 1321.84 409.46 1321.68 410.02C1321.52 410.567 1321.44 411.08 1321.44 411.56C1321.44 412.293 1321.63 412.867 1322 413.28C1322.39 413.68 1322.84 413.88 1323.36 413.88ZM1348.17 405.56C1348.32 405.56 1348.45 405.613 1348.57 405.72C1348.71 405.827 1348.77 405.973 1348.77 406.16C1348.77 406.2 1348.77 406.247 1348.75 406.3C1348.74 406.353 1348.73 406.393 1348.71 406.42L1345.63 415.62C1345.58 415.74 1345.49 415.84 1345.37 415.92C1345.27 415.987 1345.15 416.013 1345.03 416C1344.79 415.987 1344.61 415.86 1344.49 415.62L1341.67 408.98L1342.03 409.06L1339.53 415.62C1339.43 415.86 1339.25 415.987 1338.99 416C1338.87 416.013 1338.75 415.987 1338.63 415.92C1338.51 415.84 1338.43 415.74 1338.39 415.62L1335.23 406.42C1335.19 406.327 1335.17 406.24 1335.17 406.16C1335.17 405.987 1335.23 405.847 1335.33 405.74C1335.45 405.62 1335.61 405.56 1335.79 405.56C1335.91 405.56 1336.02 405.593 1336.11 405.66C1336.22 405.727 1336.29 405.827 1336.33 405.96L1339.17 414.48L1338.79 414.46L1341.37 407.96C1341.48 407.707 1341.67 407.58 1341.93 407.58C1342.07 407.58 1342.18 407.613 1342.27 407.68C1342.37 407.747 1342.44 407.84 1342.49 407.96L1345.23 414.48L1344.79 414.5L1347.61 405.96C1347.69 405.693 1347.88 405.56 1348.17 405.56ZM1360.59 410.88C1360.59 411.893 1360.37 412.807 1359.93 413.62C1359.49 414.42 1358.89 415.053 1358.13 415.52C1357.37 415.973 1356.51 416.2 1355.53 416.2C1354.59 416.2 1353.73 415.973 1352.95 415.52C1352.19 415.053 1351.59 414.42 1351.13 413.62C1350.69 412.807 1350.47 411.893 1350.47 410.88C1350.47 409.853 1350.69 408.94 1351.13 408.14C1351.59 407.34 1352.19 406.707 1352.95 406.24C1353.73 405.773 1354.59 405.54 1355.53 405.54C1356.51 405.54 1357.37 405.773 1358.13 406.24C1358.89 406.707 1359.49 407.34 1359.93 408.14C1360.37 408.94 1360.59 409.853 1360.59 410.88ZM1359.39 410.88C1359.39 410.067 1359.23 409.347 1358.89 408.72C1358.56 408.08 1358.1 407.58 1357.51 407.22C1356.94 406.847 1356.28 406.66 1355.53 406.66C1354.81 406.66 1354.16 406.847 1353.57 407.22C1352.99 407.58 1352.52 408.08 1352.17 408.72C1351.84 409.347 1351.67 410.067 1351.67 410.88C1351.67 411.693 1351.84 412.413 1352.17 413.04C1352.52 413.667 1352.99 414.167 1353.57 414.54C1354.16 414.9 1354.81 415.08 1355.53 415.08C1356.28 415.08 1356.94 414.9 1357.51 414.54C1358.1 414.167 1358.56 413.667 1358.89 413.04C1359.23 412.413 1359.39 411.693 1359.39 410.88ZM1375.28 405.56C1375.43 405.56 1375.56 405.613 1375.68 405.72C1375.82 405.827 1375.88 405.973 1375.88 406.16C1375.88 406.2 1375.88 406.247 1375.86 406.3C1375.85 406.353 1375.84 406.393 1375.82 406.42L1372.74 415.62C1372.69 415.74 1372.6 415.84 1372.48 415.92C1372.38 415.987 1372.26 416.013 1372.14 416C1371.9 415.987 1371.72 415.86 1371.6 415.62L1368.78 408.98L1369.14 409.06L1366.64 415.62C1366.54 415.86 1366.36 415.987 1366.1 416C1365.98 416.013 1365.86 415.987 1365.74 415.92C1365.62 415.84 1365.54 415.74 1365.5 415.62L1362.34 406.42C1362.3 406.327 1362.28 406.24 1362.28 406.16C1362.28 405.987 1362.34 405.847 1362.44 405.74C1362.56 405.62 1362.72 405.56 1362.9 405.56C1363.02 405.56 1363.13 405.593 1363.22 405.66C1363.33 405.727 1363.4 405.827 1363.44 405.96L1366.28 414.48L1365.9 414.46L1368.48 407.96C1368.59 407.707 1368.78 407.58 1369.04 407.58C1369.18 407.58 1369.29 407.613 1369.38 407.68C1369.48 407.747 1369.55 407.84 1369.6 407.96L1372.34 414.48L1371.9 414.5L1374.72 405.96C1374.8 405.693 1374.99 405.56 1375.28 405.56ZM1378.34 410.34C1378.18 410.34 1378.04 410.28 1377.92 410.16C1377.81 410.04 1377.76 409.893 1377.76 409.72C1377.76 409.56 1377.81 409.427 1377.92 409.32C1378.04 409.2 1378.18 409.14 1378.34 409.14H1382.66C1382.82 409.14 1382.96 409.2 1383.08 409.32C1383.2 409.44 1383.26 409.587 1383.26 409.76C1383.26 409.92 1383.2 410.06 1383.08 410.18C1382.96 410.287 1382.82 410.34 1382.66 410.34H1378.34ZM1394.35 405.78C1394.53 405.78 1394.67 405.84 1394.77 405.96C1394.89 406.08 1394.95 406.227 1394.95 406.4V415.4C1394.95 415.56 1394.89 415.7 1394.77 415.82C1394.65 415.94 1394.51 416 1394.35 416C1394.18 416 1394.03 415.94 1393.91 415.82C1393.81 415.7 1393.75 415.56 1393.75 415.4V413.02L1394.09 412.86C1394.09 413.233 1393.99 413.613 1393.77 414C1393.57 414.387 1393.29 414.747 1392.93 415.08C1392.57 415.413 1392.15 415.687 1391.65 415.9C1391.17 416.1 1390.65 416.2 1390.09 416.2C1389.19 416.2 1388.37 415.967 1387.65 415.5C1386.95 415.033 1386.39 414.393 1385.97 413.58C1385.57 412.767 1385.37 411.853 1385.37 410.84C1385.37 409.8 1385.58 408.887 1385.99 408.1C1386.41 407.3 1386.97 406.673 1387.67 406.22C1388.38 405.767 1389.18 405.54 1390.07 405.54C1390.65 405.54 1391.18 405.64 1391.67 405.84C1392.18 406.04 1392.62 406.313 1392.99 406.66C1393.37 407.007 1393.65 407.407 1393.85 407.86C1394.07 408.3 1394.17 408.76 1394.17 409.24L1393.75 408.94V406.4C1393.75 406.227 1393.81 406.08 1393.91 405.96C1394.03 405.84 1394.18 405.78 1394.35 405.78ZM1390.19 415.08C1390.9 415.08 1391.53 414.9 1392.07 414.54C1392.62 414.167 1393.05 413.66 1393.35 413.02C1393.67 412.367 1393.83 411.64 1393.83 410.84C1393.83 410.053 1393.67 409.347 1393.35 408.72C1393.05 408.093 1392.62 407.593 1392.07 407.22C1391.53 406.847 1390.9 406.66 1390.19 406.66C1389.5 406.66 1388.87 406.84 1388.31 407.2C1387.77 407.56 1387.33 408.053 1387.01 408.68C1386.71 409.307 1386.55 410.027 1386.55 410.84C1386.55 411.64 1386.71 412.367 1387.01 413.02C1387.33 413.66 1387.77 414.167 1388.31 414.54C1388.86 414.9 1389.49 415.08 1390.19 415.08ZM1399.26 415.4C1399.26 415.56 1399.2 415.7 1399.08 415.82C1398.96 415.94 1398.82 416 1398.66 416C1398.49 416 1398.34 415.94 1398.22 415.82C1398.12 415.7 1398.06 415.56 1398.06 415.4V406.2C1398.06 406.04 1398.12 405.9 1398.22 405.78C1398.34 405.66 1398.49 405.6 1398.66 405.6C1398.84 405.6 1398.98 405.66 1399.08 405.78C1399.2 405.9 1399.26 406.04 1399.26 406.2V415.4ZM1398.66 404.26C1398.38 404.26 1398.17 404.2 1398.02 404.08C1397.89 403.947 1397.82 403.76 1397.82 403.52V403.32C1397.82 403.08 1397.9 402.9 1398.04 402.78C1398.2 402.647 1398.42 402.58 1398.68 402.58C1398.94 402.58 1399.13 402.647 1399.26 402.78C1399.41 402.9 1399.48 403.08 1399.48 403.32V403.52C1399.48 403.76 1399.41 403.947 1399.26 404.08C1399.13 404.2 1398.93 404.26 1398.66 404.26ZM1402.54 416C1402.31 416 1402.14 415.927 1402.02 415.78C1401.9 415.633 1401.84 415.447 1401.84 415.22V414.8C1401.84 414.56 1401.9 414.373 1402.02 414.24C1402.14 414.107 1402.31 414.04 1402.54 414.04H1402.68C1402.91 414.04 1403.08 414.107 1403.2 414.24C1403.32 414.373 1403.38 414.56 1403.38 414.8V415.22C1403.38 415.447 1403.32 415.633 1403.2 415.78C1403.08 415.927 1402.91 416 1402.68 416H1402.54ZM1410.49 405.54C1411.13 405.54 1411.72 405.613 1412.25 405.76C1412.79 405.893 1413.21 406.08 1413.53 406.32C1413.87 406.56 1414.03 406.82 1414.03 407.1C1414.03 407.233 1413.99 407.367 1413.89 407.5C1413.8 407.62 1413.67 407.68 1413.51 407.68C1413.35 407.68 1413.22 407.64 1413.11 407.56C1413.02 407.48 1412.92 407.387 1412.81 407.28C1412.72 407.173 1412.58 407.073 1412.39 406.98C1412.22 406.9 1411.97 406.827 1411.65 406.76C1411.33 406.693 1410.97 406.66 1410.55 406.66C1409.81 406.66 1409.13 406.847 1408.53 407.22C1407.93 407.593 1407.46 408.1 1407.11 408.74C1406.77 409.367 1406.59 410.073 1406.59 410.86C1406.59 411.66 1406.76 412.38 1407.09 413.02C1407.43 413.66 1407.89 414.167 1408.47 414.54C1409.06 414.9 1409.75 415.08 1410.53 415.08C1411.07 415.08 1411.48 415.033 1411.77 414.94C1412.07 414.847 1412.32 414.74 1412.53 414.62C1412.79 414.473 1412.97 414.333 1413.07 414.2C1413.19 414.053 1413.35 413.98 1413.53 413.98C1413.71 413.98 1413.83 414.033 1413.91 414.14C1414.01 414.233 1414.05 414.36 1414.05 414.52C1414.05 414.733 1413.89 414.973 1413.57 415.24C1413.27 415.493 1412.84 415.72 1412.29 415.92C1411.75 416.107 1411.12 416.2 1410.41 416.2C1409.41 416.2 1408.53 415.967 1407.77 415.5C1407.03 415.033 1406.44 414.4 1406.01 413.6C1405.6 412.787 1405.39 411.873 1405.39 410.86C1405.39 409.887 1405.61 409 1406.03 408.2C1406.46 407.4 1407.05 406.76 1407.81 406.28C1408.59 405.787 1409.48 405.54 1410.49 405.54ZM1425.87 410.88C1425.87 411.893 1425.65 412.807 1425.21 413.62C1424.77 414.42 1424.17 415.053 1423.41 415.52C1422.65 415.973 1421.78 416.2 1420.81 416.2C1419.86 416.2 1419 415.973 1418.23 415.52C1417.47 415.053 1416.86 414.42 1416.41 413.62C1415.97 412.807 1415.75 411.893 1415.75 410.88C1415.75 409.853 1415.97 408.94 1416.41 408.14C1416.86 407.34 1417.47 406.707 1418.23 406.24C1419 405.773 1419.86 405.54 1420.81 405.54C1421.78 405.54 1422.65 405.773 1423.41 406.24C1424.17 406.707 1424.77 407.34 1425.21 408.14C1425.65 408.94 1425.87 409.853 1425.87 410.88ZM1424.67 410.88C1424.67 410.067 1424.5 409.347 1424.17 408.72C1423.83 408.08 1423.37 407.58 1422.79 407.22C1422.21 406.847 1421.55 406.66 1420.81 406.66C1420.09 406.66 1419.43 406.847 1418.85 407.22C1418.26 407.58 1417.79 408.08 1417.45 408.72C1417.11 409.347 1416.95 410.067 1416.95 410.88C1416.95 411.693 1417.11 412.413 1417.45 413.04C1417.79 413.667 1418.26 414.167 1418.85 414.54C1419.43 414.9 1420.09 415.08 1420.81 415.08C1421.55 415.08 1422.21 414.9 1422.79 414.54C1423.37 414.167 1423.83 413.667 1424.17 413.04C1424.5 412.413 1424.67 411.693 1424.67 410.88ZM1433.02 405.7C1433.84 405.7 1434.55 405.92 1435.14 406.36C1435.72 406.787 1436.12 407.427 1436.34 408.28L1436.06 408.36L1436.18 408C1436.35 407.6 1436.64 407.227 1437.04 406.88C1437.45 406.52 1437.92 406.233 1438.44 406.02C1438.96 405.807 1439.48 405.7 1440.02 405.7C1440.86 405.7 1441.53 405.88 1442.04 406.24C1442.56 406.6 1442.93 407.087 1443.16 407.7C1443.4 408.3 1443.52 408.98 1443.52 409.74V415.4C1443.52 415.56 1443.46 415.7 1443.34 415.82C1443.23 415.94 1443.09 416 1442.92 416C1442.74 416 1442.6 415.94 1442.48 415.82C1442.37 415.7 1442.32 415.56 1442.32 415.4V409.8C1442.32 409.253 1442.23 408.753 1442.06 408.3C1441.88 407.847 1441.61 407.487 1441.24 407.22C1440.86 406.953 1440.36 406.82 1439.74 406.82C1439.19 406.82 1438.66 406.953 1438.16 407.22C1437.66 407.487 1437.26 407.847 1436.94 408.3C1436.63 408.753 1436.48 409.253 1436.48 409.8V415.4C1436.48 415.56 1436.42 415.7 1436.3 415.82C1436.19 415.94 1436.05 416 1435.88 416C1435.7 416 1435.56 415.94 1435.44 415.82C1435.33 415.7 1435.28 415.56 1435.28 415.4V409.74C1435.28 409.193 1435.2 408.7 1435.04 408.26C1434.88 407.82 1434.62 407.473 1434.26 407.22C1433.9 406.953 1433.41 406.82 1432.8 406.82C1432.25 406.82 1431.73 406.953 1431.24 407.22C1430.76 407.473 1430.36 407.82 1430.06 408.26C1429.76 408.7 1429.62 409.193 1429.62 409.74V415.4C1429.62 415.56 1429.56 415.7 1429.44 415.82C1429.32 415.94 1429.18 416 1429.02 416C1428.83 416 1428.68 415.94 1428.58 415.82C1428.47 415.7 1428.42 415.56 1428.42 415.4V406.44C1428.42 406.28 1428.47 406.14 1428.58 406.02C1428.7 405.9 1428.84 405.84 1429.02 405.84C1429.19 405.84 1429.33 405.9 1429.44 406.02C1429.56 406.14 1429.62 406.28 1429.62 406.44V408.3L1429.08 409.04C1429.12 408.64 1429.24 408.24 1429.46 407.84C1429.68 407.44 1429.98 407.08 1430.34 406.76C1430.7 406.44 1431.1 406.187 1431.56 406C1432.02 405.8 1432.51 405.7 1433.02 405.7Z" fill="#210060" stroke-dasharray="0,0,0,2419.4033203125"><animate attributeType="XML" attributeName="stroke-dasharray" repeatCount="1" dur="2.5s" values="0,0,0,2419.4033203125; 
          0,1209.70166015625,1209.70166015625,0; 
          2419.4033203125,0,0,0" keyTimes="0; 0.5; 1" fill="freeze"></animate></path>
<path fill-rule="evenodd" clip-rule="evenodd" d="M1223.74 362.029C1220.75 362.408 1218.41 364.568 1217.81 367.501C1217.3 370.019 1218.33 373.747 1220.65 377.722L1221.02 378.352L1218.11 378.379C1215.62 378.401 1215.2 378.416 1215.13 378.484C1215.05 378.569 1212 386.532 1212 386.663C1212 386.707 1212.06 386.8 1212.13 386.871L1212.26 387H1224.5H1236.74L1236.87 386.871C1236.94 386.8 1237 386.707 1237 386.664C1237 386.533 1233.95 378.569 1233.87 378.484C1233.8 378.416 1233.38 378.401 1230.89 378.379L1227.98 378.352L1228.42 377.59C1228.97 376.652 1229.81 374.948 1230.16 374.068C1231.18 371.51 1231.53 369.224 1231.17 367.442C1230.63 364.773 1228.53 362.679 1225.87 362.136C1225.27 362.013 1224.27 361.963 1223.74 362.029ZM1225.16 362.768C1226.56 362.93 1227.79 363.523 1228.79 364.52C1230.62 366.363 1231.03 368.681 1230.09 371.992C1229.5 374.116 1228.21 376.706 1226.43 379.378C1225.81 380.3 1224.56 382.006 1224.5 382.006C1224.44 382.006 1223.21 380.343 1222.65 379.509C1219.29 374.504 1217.86 370.16 1218.62 367.269C1219.07 365.537 1220.41 363.962 1222.02 363.262C1223.07 362.807 1224.09 362.646 1225.16 362.768ZM1223.72 365.816C1223.17 365.962 1222.74 366.209 1222.32 366.63C1220.84 368.099 1221.22 370.586 1223.06 371.557C1224.27 372.192 1225.71 371.97 1226.67 371.001C1227.06 370.616 1227.3 370.226 1227.47 369.705C1227.61 369.299 1227.61 368.323 1227.47 367.918C1227.21 367.146 1226.63 366.429 1225.99 366.089C1225.3 365.724 1224.46 365.623 1223.72 365.816ZM1225.02 366.501C1226.52 366.848 1227.3 368.543 1226.6 369.926C1226.45 370.211 1226 370.679 1225.72 370.846C1224.14 371.771 1222.14 370.631 1222.14 368.811C1222.14 367.745 1222.92 366.747 1223.96 366.503C1224.23 366.438 1224.74 366.438 1225.02 366.501ZM1219.47 381.909C1220.65 383.444 1221.61 384.705 1221.6 384.713C1221.59 384.72 1220.61 385.072 1219.42 385.495L1217.25 386.264H1215.1C1213.83 386.264 1212.95 386.244 1212.95 386.216C1212.95 386.19 1213.5 384.705 1214.18 382.917C1214.87 381.129 1215.47 379.542 1215.53 379.391L1215.63 379.115L1216.48 379.117L1217.33 379.119L1219.47 381.909ZM1221.98 379.838C1222.47 380.573 1223.82 382.39 1224.14 382.764C1224.29 382.927 1224.36 382.97 1224.5 382.97C1224.64 382.97 1224.71 382.927 1224.86 382.764C1225.19 382.379 1226.53 380.563 1227.02 379.838L1227.5 379.115H1230.44H1233.37L1233.47 379.391C1233.53 379.542 1233.64 379.825 1233.71 380.019L1233.84 380.371L1233.73 380.407C1233.66 380.426 1231.12 381.33 1228.07 382.415C1225.02 383.5 1222.48 384.397 1222.43 384.407C1222.34 384.422 1222 384.005 1220.68 382.283C1219.78 381.104 1218.86 379.909 1218.64 379.627L1218.25 379.115H1219.87H1221.5L1221.98 379.838ZM1235.09 383.628C1235.62 385.025 1236.05 386.189 1236.05 386.216C1236.05 386.246 1235.4 386.26 1234.41 386.252L1232.77 386.238L1231.37 384.424C1230.6 383.427 1229.98 382.588 1229.98 382.56C1230 382.507 1234 381.058 1234.08 381.078C1234.1 381.084 1234.56 382.231 1235.09 383.628ZM1230.02 383.872C1230.47 384.45 1231.06 385.225 1231.35 385.594L1231.86 386.264L1225.7 386.26C1221.78 386.258 1219.57 386.239 1219.64 386.207C1219.83 386.12 1229.15 382.803 1229.18 382.812C1229.2 382.817 1229.58 383.294 1230.02 383.872Z" fill="#210060" stroke-dasharray="0,0,0,288.343994140625"><animate attributeType="XML" attributeName="stroke-dasharray" repeatCount="1" dur="2.5s" values="0,0,0,288.343994140625; 
          0,144.1719970703125,144.1719970703125,0; 
          288.343994140625,0,0,0" keyTimes="0; 0.5; 1" fill="freeze"></animate></path>
<path d="M480.604 688.449C480.313 688.199 480 688.074 479.667 688.074C479.396 688.074 479.146 688.136 478.897 688.282C478.668 688.428 478.501 688.637 478.418 688.887L475.294 698.372L472.692 691.847C472.588 691.597 472.442 691.388 472.234 691.242C472.025 691.096 471.775 691.034 471.526 691.034C471.255 691.013 471.026 691.096 470.818 691.242C470.609 691.388 470.443 691.597 470.339 691.847L467.59 698.434L464.446 688.887C464.363 688.616 464.196 688.407 463.967 688.282C463.738 688.136 463.488 688.074 463.218 688.074C462.884 688.074 462.572 688.199 462.281 688.449C461.968 688.699 461.823 689.033 461.823 689.45C461.823 689.575 461.843 689.721 461.885 689.867L466.049 702.124C466.133 702.374 466.278 702.562 466.508 702.708C466.737 702.833 466.966 702.916 467.174 702.937C467.403 702.937 467.653 702.875 467.882 702.729C468.111 702.583 468.298 702.374 468.423 702.124L471.442 695.307L474.441 702.124C474.566 702.395 474.753 702.604 474.982 702.729C475.211 702.875 475.44 702.937 475.69 702.937C475.919 702.916 476.148 702.854 476.377 702.708C476.585 702.583 476.752 702.374 476.835 702.124L481 689.867C481.041 689.721 481.062 689.575 481.062 689.45C481.041 689.033 480.896 688.678 480.604 688.449Z" fill="#676767" stroke-dasharray="0,0,0,92.5108871459961"><animate attributeType="XML" attributeName="stroke-dasharray" repeatCount="1" dur="2.5s" values="0,0,0,92.5108871459961; 
          0,46.25544357299805,46.25544357299805,0; 
          92.5108871459961,0,0,0" keyTimes="0; 0.5; 1" fill="freeze"></animate></path>
<path d="M493.139 697.079C493.139 698.226 492.889 699.248 492.368 700.123C491.848 700.999 491.161 701.687 490.307 702.187C489.453 702.687 488.475 702.916 487.413 702.916C486.351 702.916 485.372 702.666 484.519 702.187C483.665 701.687 482.957 701.019 482.457 700.123C481.937 699.248 481.687 698.226 481.687 697.079C481.687 695.933 481.937 694.911 482.457 694.036C482.978 693.16 483.665 692.472 484.519 691.972C485.372 691.472 486.351 691.222 487.413 691.222C488.475 691.222 489.453 691.472 490.307 691.972C491.161 692.472 491.869 693.16 492.368 694.036C492.889 694.911 493.139 695.933 493.139 697.079ZM490.619 697.079C490.619 696.371 490.474 695.745 490.182 695.203C489.891 694.682 489.516 694.265 489.016 693.973C488.537 693.682 487.996 693.536 487.413 693.536C486.83 693.536 486.288 693.682 485.81 693.973C485.331 694.265 484.935 694.682 484.643 695.203C484.352 695.724 484.206 696.35 484.206 697.079C484.206 697.788 484.352 698.393 484.643 698.935C484.935 699.456 485.31 699.873 485.81 700.165C486.288 700.457 486.83 700.603 487.413 700.603C487.996 700.603 488.537 700.457 489.016 700.165C489.495 699.873 489.891 699.456 490.182 698.935C490.474 698.393 490.619 697.788 490.619 697.079Z" fill="#676767" stroke-dasharray="0,0,0,57.94473648071289"><animate attributeType="XML" attributeName="stroke-dasharray" repeatCount="1" dur="2.5s" values="0,0,0,57.94473648071289; 
          0,28.972368240356445,28.972368240356445,0; 
          57.94473648071289,0,0,0" keyTimes="0; 0.5; 1" fill="freeze"></animate></path>
<path d="M509.172 691.993C508.943 691.743 508.651 691.618 508.318 691.618C507.673 691.618 507.256 691.889 507.09 692.431L504.82 698.518L503.196 694.098C503.092 693.848 502.967 693.661 502.8 693.515C502.634 693.39 502.405 693.306 502.092 693.306C501.551 693.306 501.155 693.577 500.926 694.098L499.261 698.622L496.97 692.431C496.887 692.139 496.741 691.951 496.533 691.826C496.325 691.701 496.075 691.639 495.825 691.639C495.429 691.639 495.117 691.764 494.888 692.035C494.659 692.306 494.555 692.597 494.555 692.952C494.555 693.119 494.576 693.285 494.638 693.431L497.866 702.145C497.97 702.437 498.136 702.645 498.407 702.791C498.678 702.937 498.927 703 499.198 702.958C499.677 702.937 500.031 702.666 500.281 702.145L501.988 696.933L503.8 702.145C504.029 702.645 504.404 702.916 504.883 702.958C505.174 703 505.424 702.958 505.695 702.791C505.944 702.645 506.132 702.437 506.215 702.145L509.443 693.431C509.463 693.369 509.484 693.285 509.505 693.202C509.526 693.119 509.526 693.035 509.526 692.931C509.526 692.535 509.401 692.222 509.172 691.993Z" fill="#676767" stroke-dasharray="0,0,0,69.56695556640625"><animate attributeType="XML" attributeName="stroke-dasharray" repeatCount="1" dur="2.5s" values="0,0,0,69.56695556640625; 
          0,34.783477783203125,34.783477783203125,0; 
          69.56695556640625,0,0,0" keyTimes="0; 0.5; 1" fill="freeze"></animate></path>
<path d="M529.161 701.249L523.976 688.887C523.872 688.616 523.726 688.407 523.497 688.262C523.289 688.116 523.039 688.032 522.789 688.032C522.519 688.011 522.269 688.074 522.04 688.22C521.811 688.366 521.644 688.595 521.519 688.866L516.272 701.478C516.231 701.624 516.21 701.749 516.21 701.874C516.21 702.187 516.293 702.437 516.48 702.645C516.668 702.854 516.938 702.958 517.313 702.958C517.542 702.958 517.771 702.875 517.98 702.729C518.188 702.583 518.334 702.374 518.438 702.103L519.52 699.539H525.809L526.912 702.083C527.016 702.354 527.183 702.562 527.391 702.708C527.599 702.854 527.828 702.937 528.078 702.937C528.37 702.937 528.64 702.833 528.89 702.604C529.14 702.374 529.265 702.083 529.265 701.707C529.265 701.603 529.223 701.436 529.161 701.249ZM520.582 697.163L522.685 692.222L524.809 697.163H520.582Z" fill="#676767" stroke-dasharray="0,0,0,64.64131164550781"><animate attributeType="XML" attributeName="stroke-dasharray" repeatCount="1" dur="2.5s" values="0,0,0,64.64131164550781; 
          0,32.320655822753906,32.320655822753906,0; 
          64.64131164550781,0,0,0" keyTimes="0; 0.5; 1" fill="freeze"></animate></path>
<path d="M535.991 700.519H535.345V690.513H536.011C536.678 690.513 537.219 689.971 537.219 689.304C537.219 688.637 536.678 688.095 536.011 688.095H532.055C531.389 688.095 530.848 688.637 530.848 689.304C530.848 689.971 531.389 690.513 532.055 690.513H532.722V700.519H532.055C531.389 700.519 530.848 701.061 530.848 701.728C530.848 702.395 531.389 702.937 532.055 702.937H536.011C536.678 702.937 537.219 702.395 537.219 701.728C537.198 701.061 536.657 700.519 535.991 700.519Z" fill="#676767" stroke-dasharray="0,0,0,45.7608757019043"><animate attributeType="XML" attributeName="stroke-dasharray" repeatCount="1" dur="2.5s" values="0,0,0,45.7608757019043; 
          0,22.88043785095215,22.88043785095215,0; 
          45.7608757019043,0,0,0" keyTimes="0; 0.5; 1" fill="freeze"></animate></path>
<path d="M548.192 602.708C544.507 592.911 538.031 584.53 529.432 578.464C520.666 572.273 510.317 569 499.531 569C486.684 569 474.337 573.732 464.8 582.321C455.701 590.513 449.787 601.604 448.08 613.653C444.624 614.32 442 617.363 442 621.032C442 625.181 445.373 628.537 449.496 628.537C453.64 628.537 456.992 625.16 456.992 621.032C456.992 617.759 454.889 614.966 451.974 613.945C453.598 602.896 459.032 592.744 467.403 585.218C476.231 577.276 487.642 572.898 499.531 572.898C509.505 572.898 519.062 575.921 527.183 581.654C534.596 586.886 540.322 593.974 543.82 602.271L529.223 607.753C526.829 602.396 523.06 597.81 518.209 594.391C512.712 590.513 506.257 588.47 499.51 588.47C481.583 588.47 466.986 603.084 466.986 621.032V622.971H488.371V619.073H470.943C471.942 604.168 484.373 592.348 499.51 592.348C505.445 592.348 511.129 594.161 515.96 597.559C520.686 600.895 524.268 605.523 526.308 610.901L526.995 612.715L548.859 604.501L548.192 602.708ZM453.119 621.032C453.119 623.034 451.495 624.639 449.517 624.639C447.539 624.639 445.915 623.013 445.915 621.032C445.915 619.052 447.539 617.426 449.517 617.426C451.495 617.426 453.119 619.031 453.119 621.032Z" fill="url(#paint1_linear_233_125)" stroke-dasharray="0,0,0,581.611572265625"><animate attributeType="XML" attributeName="stroke-dasharray" repeatCount="1" dur="2.5s" values="0,0,0,581.611572265625; 
          0,290.8057861328125,290.8057861328125,0; 
          581.611572265625,0,0,0" keyTimes="0; 0.5; 1" fill="freeze"></animate></path>
<path d="M557 621.032C557 616.884 553.627 613.528 549.504 613.528C545.361 613.528 542.008 616.905 542.008 621.032C542.008 624.305 544.111 627.099 547.026 628.12C545.402 639.169 539.968 649.321 531.597 656.846C522.769 664.789 511.358 669.167 499.469 669.167C489.495 669.167 479.938 666.144 471.817 660.411C464.405 655.179 458.678 648.091 455.18 639.794L469.777 634.312C472.171 639.669 475.94 644.255 480.791 647.674C486.288 651.551 492.743 653.594 499.49 653.594C517.417 653.594 532.014 638.981 532.014 621.032V619.094H510.588V622.992H528.016C527.016 637.897 514.586 649.717 499.448 649.717C493.514 649.717 487.829 647.903 482.999 644.505C478.272 641.17 474.691 636.542 472.65 631.164L471.963 629.35L450.121 637.543L450.808 639.356C454.493 649.154 460.969 657.534 469.568 663.601C478.355 669.792 488.683 673.065 499.469 673.065C512.316 673.065 524.663 668.333 534.2 659.744C543.299 651.551 549.213 640.461 550.92 628.412C554.376 627.745 557 624.701 557 621.032ZM549.504 624.66C547.505 624.66 545.902 623.034 545.902 621.053C545.902 619.052 547.526 617.447 549.504 617.447C551.503 617.447 553.106 619.073 553.106 621.053C553.106 623.034 551.503 624.66 549.504 624.66Z" fill="url(#paint2_linear_233_125)" stroke-dasharray="0,0,0,581.6570434570312"><animate attributeType="XML" attributeName="stroke-dasharray" repeatCount="1" dur="2.5s" values="0,0,0,581.6570434570312; 
          0,290.8285217285156,290.8285217285156,0; 
          581.6570434570312,0,0,0" keyTimes="0; 0.5; 1" fill="freeze"></animate></path>
<path d="M499.531 634.124C492.327 634.124 486.455 628.245 486.455 621.032C486.455 613.82 492.327 607.941 499.531 607.941C506.736 607.941 512.607 613.82 512.607 621.032C512.628 628.245 506.756 634.124 499.531 634.124ZM499.531 611.839C494.471 611.839 490.349 615.967 490.349 621.032C490.349 626.098 494.471 630.226 499.531 630.226C504.591 630.226 508.714 626.098 508.714 621.032C508.735 615.967 504.612 611.839 499.531 611.839Z" fill="#D30D60" stroke-dasharray="0,0,0,139.92910766601562"><animate attributeType="XML" attributeName="stroke-dasharray" repeatCount="1" dur="2.5s" values="0,0,0,139.92910766601562; 
          0,69.96455383300781,69.96455383300781,0; 
          139.92910766601562,0,0,0" keyTimes="0; 0.5; 1" fill="freeze"></animate></path>
<path d="M611 578L716 642L499.5 769.5L283 642L499.5 512L611 578ZM611 578L899 404H1078.5L1189 338.5H1517" stroke="url(#paint3_linear_233_125)" stroke-width="2" stroke-dasharray="0,0,0,1980.0123291015625"><animate attributeType="XML" attributeName="stroke-dasharray" repeatCount="1" dur="2.5s" values="0,0,0,1980.0123291015625; 
          0,990.0061645507812,990.0061645507812,0; 
          1980.0123291015625,0,0,0" keyTimes="0; 0.5; 1" fill="freeze"></animate></path>
<circle cx="1523.5" cy="338.5" r="6.5" stroke="url(#paint4_linear_233_125)" stroke-width="2" stroke-dasharray="0,0,0,39.799198150634766"><animate attributeType="XML" attributeName="stroke-dasharray" repeatCount="1" dur="2.5s" values="0,0,0,39.799198150634766; 
          0,19.899599075317383,19.899599075317383,0; 
          39.799198150634766,0,0,0" keyTimes="0; 0.5; 1" fill="freeze"></animate></circle>
<path fill-rule="evenodd" clip-rule="evenodd" d="M1235.24 403.092C1236.1 403.314 1236.77 404.024 1236.94 404.884C1237.02 405.306 1237.02 416.699 1236.94 417.107C1236.75 418.06 1235.95 418.812 1234.96 418.959C1234.73 418.993 1231.09 419.007 1224.75 418.997L1214.89 418.982L1214.58 418.862C1213.91 418.6 1213.42 418.13 1213.14 417.471L1213.02 417.181L1213 411.22C1212.99 407.115 1213.01 405.155 1213.05 404.925C1213.13 404.447 1213.35 404.033 1213.71 403.689C1214.05 403.355 1214.33 403.203 1214.79 403.086C1215.26 402.968 1234.77 402.973 1235.24 403.092ZM1214.98 403.935C1214.94 403.971 1216.55 405.372 1219.91 408.227C1222.66 410.558 1224.94 412.472 1224.97 412.481C1225.04 412.497 1234.97 404.101 1235.02 403.988C1235.03 403.959 1234.97 403.92 1234.88 403.901C1234.59 403.842 1215.04 403.875 1214.98 403.935ZM1232.44 407.375C1230.8 408.771 1229.46 409.941 1229.47 409.975C1229.48 410.009 1230.94 411.637 1232.73 413.594C1234.87 415.945 1235.99 417.13 1236.02 417.087C1236.04 417.051 1236.06 414.304 1236.06 410.981C1236.06 405.074 1236.06 404.936 1235.95 404.71L1235.84 404.478L1235.63 404.657C1235.52 404.755 1234.08 405.978 1232.44 407.375ZM1213.98 404.859C1213.91 405.105 1213.91 417.03 1213.98 417.072C1214.03 417.104 1220.51 410.037 1220.51 409.946C1220.51 409.916 1219.08 408.679 1217.34 407.197C1213.9 404.267 1214.11 404.414 1213.98 404.859ZM1226.8 412.17C1225.95 412.886 1225.2 413.494 1225.13 413.522C1225.05 413.553 1224.94 413.553 1224.86 413.522C1224.78 413.494 1223.95 412.816 1223.01 412.015C1222.06 411.213 1221.27 410.557 1221.24 410.557C1221.22 410.557 1219.7 412.201 1217.87 414.21C1214.24 418.185 1214.46 417.899 1214.91 418.047C1215.18 418.134 1234.81 418.135 1235.08 418.048C1235.5 417.913 1235.67 418.136 1232.07 414.19L1228.73 410.526L1228.53 410.697C1228.42 410.791 1227.64 411.454 1226.8 412.17Z" fill="#210060" stroke-dasharray="0,0,0,233.69798278808594"><animate attributeType="XML" attributeName="stroke-dasharray" repeatCount="1" dur="2.5s" values="0,0,0,233.69798278808594; 
          0,116.84899139404297,116.84899139404297,0; 
          233.69798278808594,0,0,0" keyTimes="0; 0.5; 1" fill="freeze"></animate></path>
<defs>
<filter id="filter0_d_233_125" x="0" y="0" width="1699" height="821" filterUnits="userSpaceOnUse" color-interpolation-filters="sRGB">
<feFlood flood-opacity="0" result="BackgroundImageFix"></feFlood>
<feColorMatrix in="SourceAlpha" type="matrix" values="0 0 0 0 0 0 0 0 0 0 0 0 0 0 0 0 0 0 127 0" result="hardAlpha"></feColorMatrix>
<feOffset dy="4"></feOffset>
<feGaussianBlur stdDeviation="2"></feGaussianBlur>
<feComposite in2="hardAlpha" operator="out"></feComposite>
<feColorMatrix type="matrix" values="0 0 0 0 0 0 0 0 0 0 0 0 0 0 0 0 0 0 0.25 0"></feColorMatrix>
<feBlend mode="normal" in2="BackgroundImageFix" result="effect1_dropShadow_233_125"></feBlend>
<feBlend mode="normal" in="SourceGraphic" in2="effect1_dropShadow_233_125" result="shape"></feBlend>
</filter>
<radialGradient id="paint0_radial_233_125" cx="0" cy="0" r="1" gradientUnits="userSpaceOnUse" gradientTransform="translate(764 529.588) scale(639.868 654.296)">
<stop stop-color="#42E8E0"></stop>
<stop offset="0.1055" stop-color="#37B6BF"></stop>
<stop offset="0.2197" stop-color="#2C87A1"></stop>
<stop offset="0.338" stop-color="#235F87"></stop>
<stop offset="0.4587" stop-color="#1C3F72"></stop>
<stop offset="0.5824" stop-color="#162561"></stop>
<stop offset="0.7105" stop-color="#121355"></stop>
<stop offset="0.8458" stop-color="#10084E"></stop>
<stop offset="1" stop-color="#0F054C"></stop>
</radialGradient>
<linearGradient id="paint1_linear_233_125" x1="488.293" y1="598.767" x2="449.724" y2="598.767" gradientUnits="userSpaceOnUse">
<stop offset="0.0389" stop-color="#D30D60"></stop>
<stop offset="1" stop-color="#2C2660"></stop>
</linearGradient>
<linearGradient id="paint2_linear_233_125" x1="510.453" y1="643.299" x2="549.583" y2="643.299" gradientUnits="userSpaceOnUse">
<stop offset="0.0389" stop-color="#D30D60"></stop>
<stop offset="1" stop-color="#2C2660"></stop>
</linearGradient>
<linearGradient id="paint3_linear_233_125" x1="438.5" y1="588" x2="1091" y2="400" gradientUnits="userSpaceOnUse">
<stop stop-color="#D30D60"></stop>
<stop offset="1" stop-color="#210060"></stop>
</linearGradient>
<linearGradient id="paint4_linear_233_125" x1="1556.96" y1="331" x2="1523.5" y2="346" gradientUnits="userSpaceOnUse">
<stop stop-color="#D30D60"></stop>
<stop offset="1" stop-color="#210060"></stop>
</linearGradient>
</defs>
<setting>{"type":"direct","speed":20,"random":1,"shift":1,"size":1,"rupture":50}</setting></svg>