<?xml version="1.0" encoding="UTF-8" standalone="no"?>
<svg
   xmlns:dc="http://purl.org/dc/elements/1.1/"
   xmlns:cc="http://creativecommons.org/ns#"
   xmlns:rdf="http://www.w3.org/1999/02/22-rdf-syntax-ns#"
   xmlns:svg="http://www.w3.org/2000/svg"
   xmlns="http://www.w3.org/2000/svg"
   viewBox="0 0 1333.3333 1333.3333"
   height="1333.3333"
   width="1333.3333"
   xml:space="preserve"
   id="svg2"
   version="1.1"><metadata
     id="metadata8"><rdf:RDF><cc:Work
         rdf:about=""><dc:format>image/svg+xml</dc:format><dc:type
           rdf:resource="http://purl.org/dc/dcmitype/StillImage" /></cc:Work></rdf:RDF></metadata><defs
     id="defs6"><clipPath
       id="clipPath18"
       clipPathUnits="userSpaceOnUse"><path
         id="path16"
         d="M 0,1000 H 1000 V 0 H 0 Z" /></clipPath></defs><g
     transform="matrix(1.3333333,0,0,-1.3333333,0,1333.3333)"
     id="g10"><g
       id="g12"><g
         clip-path="url(#clipPath18)"
         id="g14"><g
           transform="translate(401.6909,230.6822)"
           id="g20"><path
             id="path22"
             style="fill:#040606;fill-opacity:1;fill-rule:nonzero;stroke:none"
             d="m 0,0 c -1.528,1.273 -3.132,1.911 -4.807,1.911 -1.383,0 -2.695,-0.362 -3.933,-1.091 -1.238,-0.729 -2.073,-1.783 -2.512,-3.168 l -16.161,-49.002 -13.443,33.706 c -0.509,1.314 -1.31,2.352 -2.404,3.114 -1.091,0.766 -2.331,1.112 -3.713,1.038 -1.385,0.074 -2.621,-0.272 -3.715,-1.038 -1.091,-0.762 -1.929,-1.8 -2.512,-3.114 l -14.192,-34.078 -16.286,49.374 c -0.438,1.385 -1.256,2.439 -2.458,3.168 -1.201,0.729 -2.496,1.091 -3.878,1.091 -1.676,0 -3.297,-0.638 -4.862,-1.911 -1.567,-1.272 -2.348,-3.002 -2.348,-5.189 0,-0.655 0.11,-1.384 0.328,-2.183 l 21.52,-63.36 c 0.436,-1.31 1.237,-2.315 2.403,-3.002 1.165,-0.697 2.331,-1.079 3.496,-1.15 1.238,0 2.457,0.363 3.66,1.092 1.202,0.729 2.129,1.783 2.786,3.167 l 15.6,35.262 15.533,-35.262 c 0.656,-1.384 1.583,-2.438 2.786,-3.167 1.202,-0.729 2.419,-1.092 3.659,-1.092 1.238,0.071 2.42,0.453 3.55,1.15 1.129,0.687 1.911,1.692 2.35,3.002 l 21.519,63.36 c 0.219,0.799 0.328,1.528 0.328,2.183 C 2.294,-3.002 1.53,-1.272 0,0" /></g><g
           transform="translate(453.5293,186.0445)"
           id="g24"><path
             id="path26"
             style="fill:#040606;fill-opacity:1;fill-rule:nonzero;stroke:none"
             d="m 0,0 c 0,3.705 -0.746,6.918 -2.235,9.641 -1.489,2.723 -3.485,4.851 -5.991,6.376 -2.506,1.524 -5.285,2.288 -8.335,2.288 -3.052,0 -5.829,-0.764 -8.337,-2.288 -2.506,-1.525 -4.504,-3.653 -5.992,-6.376 -1.488,-2.723 -2.234,-5.936 -2.234,-9.641 0,-3.636 0.746,-6.812 2.234,-9.535 1.488,-2.723 3.486,-4.847 5.992,-6.375 2.508,-1.525 5.285,-2.288 8.337,-2.288 3.05,0 5.829,0.763 8.335,2.288 2.506,1.528 4.502,3.652 5.991,6.375 C -0.746,-6.812 0,-3.636 0,0 m 13.076,0 c 0,-5.957 -1.327,-11.207 -3.979,-15.746 -2.652,-4.539 -6.209,-8.08 -10.677,-10.623 -4.467,-2.543 -9.462,-3.812 -14.981,-3.812 -5.521,0 -10.514,1.269 -14.981,3.812 -4.468,2.543 -8.029,6.084 -10.679,10.623 -2.652,4.539 -3.977,9.789 -3.977,15.746 0,5.956 1.325,11.202 3.977,15.745 2.65,4.535 6.211,8.097 10.679,10.677 4.467,2.575 9.46,3.869 14.981,3.869 5.519,0 10.514,-1.294 14.981,-3.869 C 2.888,23.842 6.445,20.28 9.097,15.745 11.749,11.202 13.076,5.956 13.076,0" /></g><g
           transform="translate(549.4951,212.3775)"
           id="g28"><path
             id="path30"
             style="fill:#040606;fill-opacity:1;fill-rule:nonzero;stroke:none"
             d="m 0,0 c -1.238,1.272 -2.694,1.911 -4.37,1.911 -3.351,0 -5.462,-1.384 -6.335,-4.151 l -11.709,-31.413 -8.394,22.783 c -0.51,1.31 -1.184,2.311 -2.02,3.003 -0.838,0.692 -2.06,1.038 -3.662,1.038 -2.84,0 -4.844,-1.347 -6.007,-4.041 l -8.618,-23.386 -11.812,32.016 c -0.437,1.458 -1.203,2.512 -2.295,3.171 -1.093,0.655 -2.331,0.98 -3.715,0.98 -2.039,0 -3.643,-0.691 -4.807,-2.076 -1.165,-1.384 -1.748,-2.949 -1.748,-4.695 0,-0.873 0.146,-1.713 0.439,-2.513 l 16.714,-45.012 c 0.509,-1.458 1.438,-2.566 2.787,-3.332 1.346,-0.766 2.712,-1.038 4.096,-0.819 2.476,0.143 4.333,1.527 5.571,4.151 l 8.801,26.875 9.334,-26.875 c 1.238,-2.624 3.096,-4.008 5.573,-4.151 1.456,-0.219 2.84,0.053 4.153,0.819 1.309,0.766 2.219,1.874 2.73,3.332 L 1.421,-7.373 c 0.144,0.362 0.255,0.746 0.327,1.145 0.072,0.4 0.109,0.857 0.109,1.368 0,1.964 -0.62,3.588 -1.857,4.86" /></g><g
           transform="translate(608.542,185.6324)"
           id="g32"><path
             id="path34"
             style="fill:#040606;fill-opacity:1;fill-rule:nonzero;stroke:none"
             d="M 0,0 10.843,25.499 21.786,0 Z m 44.371,-21.136 -26.805,63.85 c -0.508,1.38 -1.326,2.452 -2.452,3.212 -1.126,0.764 -2.342,1.146 -3.649,1.146 C 10.084,47.216 8.796,46.888 7.597,46.091 6.399,45.289 5.508,44.164 4.927,42.714 l -27.129,-65.156 c -0.218,-0.727 -0.328,-1.417 -0.328,-2.071 0,-1.601 0.471,-2.945 1.417,-4.033 0.942,-1.089 2.396,-1.636 4.358,-1.636 1.234,0 2.378,0.383 3.433,1.147 1.051,0.764 1.834,1.832 2.343,3.213 l 5.652,13.293 h 32.491 l 5.657,-13.183 c 0.579,-1.38 1.397,-2.469 2.45,-3.269 1.054,-0.797 2.236,-1.201 3.542,-1.201 1.526,0 2.924,0.584 4.196,1.746 1.269,1.159 1.906,2.724 1.906,4.684 0,0.801 -0.183,1.672 -0.544,2.616" /></g><g
           transform="translate(688.2529,168.2945)"
           id="g36"><path
             id="path38"
             style="fill:#040606;fill-opacity:1;fill-rule:nonzero;stroke:none"
             d="m 0,0 h -3.388 v 51.686 h 3.409 c 3.452,0 6.25,2.796 6.25,6.248 0,3.451 -2.798,6.249 -6.25,6.249 h -20.439 c -3.451,0 -6.249,-2.798 -6.249,-6.249 0,-3.452 2.798,-6.248 6.249,-6.248 h 3.41 V 0 h -3.432 c -3.452,0 -6.248,-2.798 -6.248,-6.249 0,-3.451 2.796,-6.248 6.248,-6.248 H 0 c 3.451,0 6.248,2.797 6.248,6.248 C 6.248,-2.798 3.451,0 0,0" /></g><g
           transform="translate(260.9361,577.6783)"
           id="g40"><path
             id="path42"
             style="fill:#040606;fill-opacity:1;fill-rule:nonzero;stroke:none"
             d="m 0,0 c 0,-10.242 -8.333,-18.575 -18.575,-18.575 -10.242,0 -18.575,8.333 -18.575,18.575 0,10.242 8.333,18.575 18.575,18.575 C -8.333,18.575 0,10.242 0,0 m 488.979,94.104 c -18.947,50.339 -52.298,93.389 -96.448,124.495 -45.16,31.818 -98.331,48.636 -153.765,48.636 -66.081,0 -129.516,-24.309 -178.616,-68.448 C 13.318,156.685 -17.012,99.788 -25.814,37.884 -43.635,34.485 -57.15,18.796 -57.15,0 c 0,-21.27 17.305,-38.575 38.575,-38.575 C 2.695,-38.575 20,-21.27 20,0 20,16.8 9.201,31.118 -5.817,36.397 c 8.384,56.742 36.341,108.864 79.338,147.516 45.423,40.834 104.108,63.322 165.245,63.322 51.287,0 100.475,-15.556 142.245,-44.985 38.113,-26.854 67.528,-63.315 85.535,-105.894 L 391.488,68.188 c -12.3,27.497 -31.717,51.075 -56.6,68.604 -28.268,19.916 -61.507,30.443 -96.122,30.443 -92.229,0 -167.264,-75.034 -167.264,-167.264 v -10 h 110 v 20 H 91.838 c 5.158,76.556 69.087,137.264 146.928,137.264 30.469,0 59.725,-9.265 84.604,-26.793 24.341,-17.148 42.742,-40.854 53.214,-68.555 l 3.528,-9.331 112.392,42.18 z" /></g><g
           transform="translate(756.6299,559.0172)"
           id="g44"><path
             id="path46"
             style="fill:#040606;fill-opacity:1;fill-rule:nonzero;stroke:none"
             d="m 0,0 c -10.242,0 -18.575,8.333 -18.575,18.575 0,10.242 8.333,18.575 18.575,18.575 10.242,0 18.575,-8.333 18.575,-18.575 C 18.575,8.333 10.242,0 0,0 M 38.575,18.575 C 38.575,39.845 21.271,57.15 0,57.15 c -21.271,0 -38.575,-17.305 -38.575,-38.575 0,-16.8 10.799,-31.118 25.817,-36.397 -8.385,-56.741 -36.343,-108.863 -79.339,-147.515 -45.423,-40.834 -104.107,-63.322 -165.245,-63.322 -51.286,0 -100.473,15.555 -142.244,44.985 -38.113,26.853 -67.527,63.315 -85.536,105.894 l 75.059,28.168 c 12.3,-27.497 31.717,-51.075 56.6,-68.605 28.269,-19.916 61.507,-30.442 96.122,-30.442 92.229,0 167.264,75.034 167.264,167.263 v 10 h -110 v -20 h 89.664 c -5.157,-76.556 -69.087,-137.263 -146.928,-137.263 -30.469,0 -59.724,9.264 -84.604,26.792 -24.341,17.148 -42.742,40.854 -53.214,68.555 l -3.527,9.332 -112.394,-42.18 3.526,-9.368 c 18.947,-50.339 52.299,-93.389 96.449,-124.495 45.16,-31.818 98.331,-48.636 153.763,-48.636 66.082,0 129.516,24.308 178.616,68.448 46.833,42.102 77.164,98.998 85.965,160.902 17.821,3.399 31.336,19.089 31.336,37.884" /></g><g
           transform="translate(499.7022,624.9131)"
           id="g48"><path
             id="path50"
             style="fill:#040606;fill-opacity:1;fill-rule:nonzero;stroke:none"
             d="m 0,0 c -26.062,0 -47.264,-21.203 -47.264,-47.264 0,-26.061 21.202,-47.263 47.264,-47.263 26.062,0 47.265,21.202 47.265,47.263 C 47.265,-21.203 26.062,0 0,0 m 0,-114.527 c -37.089,0 -67.264,30.174 -67.264,67.263 C -67.264,-10.175 -37.089,20 0,20 37.09,20 67.265,-10.175 67.265,-47.264 67.265,-84.353 37.09,-114.527 0,-114.527" /></g></g></g></g></svg>