<?xml version="1.0" encoding="UTF-8" standalone="no"?>
<svg
   xmlns:dc="http://purl.org/dc/elements/1.1/"
   xmlns:cc="http://creativecommons.org/ns#"
   xmlns:rdf="http://www.w3.org/1999/02/22-rdf-syntax-ns#"
   xmlns:svg="http://www.w3.org/2000/svg"
   xmlns="http://www.w3.org/2000/svg"
   viewBox="0 0 1333.3333 578.06665"
   height="578.06665"
   width="1333.3333"
   xml:space="preserve"
   id="svg2"
   version="1.1"><metadata
     id="metadata8"><rdf:RDF><cc:Work
         rdf:about=""><dc:format>image/svg+xml</dc:format><dc:type
           rdf:resource="http://purl.org/dc/dcmitype/StillImage" /></cc:Work></rdf:RDF></metadata><defs
     id="defs6"><linearGradient
       id="linearGradient32"
       spreadMethod="pad"
       gradientTransform="matrix(-112.13013,0,0,112.13013,219.49785,281.94888)"
       gradientUnits="userSpaceOnUse"
       y2="0"
       x2="1"
       y1="0"
       x1="0"><stop
         id="stop24"
         offset="0"
         style="stop-opacity:1;stop-color:#d71068" /><stop
         id="stop26"
         offset="0.0389001"
         style="stop-opacity:1;stop-color:#d71068" /><stop
         id="stop28"
         offset="0.999979"
         style="stop-opacity:1;stop-color:#292a65" /><stop
         id="stop30"
         offset="1"
         style="stop-opacity:1;stop-color:#292a65" /></linearGradient><linearGradient
       id="linearGradient56"
       spreadMethod="pad"
       gradientTransform="matrix(113.76329,0,0,-113.76329,283.9213,152.63394)"
       gradientUnits="userSpaceOnUse"
       y2="0"
       x2="1"
       y1="0"
       x1="0"><stop
         id="stop48"
         offset="0"
         style="stop-opacity:1;stop-color:#d71068" /><stop
         id="stop50"
         offset="0.0389001"
         style="stop-opacity:1;stop-color:#d71068" /><stop
         id="stop52"
         offset="0.999979"
         style="stop-opacity:1;stop-color:#292a65" /><stop
         id="stop54"
         offset="1"
         style="stop-opacity:1;stop-color:#292a65" /></linearGradient><clipPath
       id="clipPath66"
       clipPathUnits="userSpaceOnUse"><path
         id="path64"
         d="M 0,433.55 H 1000 V 0 H 0 Z" /></clipPath></defs><g
     transform="matrix(1.3333333,0,0,-1.3333333,0,578.06667)"
     id="g10"><g
       id="g12"><g
         id="g14"><g
           id="g20"><g
             id="g22"><path
               id="path34"
               style="fill:url(#linearGradient32);stroke:none"
               d="m 151.223,329.693 c -26.475,-23.8 -43.621,-55.965 -48.597,-90.961 v 0 C 92.551,236.811 84.911,227.941 84.911,217.315 v 0 c 0,-12.024 9.783,-21.806 21.807,-21.806 v 0 c 12.025,0 21.808,9.782 21.808,21.806 v 0 c 0,9.498 -6.105,17.592 -14.595,20.577 v 0 c 4.74,32.077 20.544,61.542 44.852,83.394 v 0 c 25.678,23.084 58.854,35.797 93.416,35.797 v 0 c 28.993,0 56.8,-8.794 80.414,-25.431 v 0 c 21.546,-15.181 38.174,-35.794 48.355,-59.864 v 0 l -42.432,-15.924 c -6.954,15.544 -17.931,28.873 -31.998,38.783 v 0 c -15.98,11.259 -34.77,17.21 -54.339,17.21 v 0 c -52.14,0 -94.558,-42.419 -94.558,-94.558 v 0 -5.652 h 62.186 v 11.305 h -50.689 c 2.915,43.28 39.055,77.599 83.061,77.599 v 0 c 17.224,0 33.763,-5.238 47.828,-15.147 v 0 c 13.761,-9.694 24.163,-23.095 30.083,-38.755 v 0 l 1.994,-5.275 63.538,23.845 -1.993,5.296 c -10.711,28.458 -29.565,52.795 -54.524,70.379 v 0 c -25.53,17.987 -55.588,27.495 -86.926,27.495 v 0 c -37.357,0 -73.218,-13.742 -100.976,-38.696 M 96.218,217.315 c 0,5.79 4.71,10.502 10.5,10.502 v 0 c 5.791,0 10.502,-4.712 10.502,-10.502 v 0 c 0,-5.79 -4.711,-10.5 -10.502,-10.5 v 0 c -5.79,0 -10.5,4.71 -10.5,10.5" /></g></g></g></g><g
       id="g36"><g
         id="g38"><g
           id="g44"><g
             id="g46"><path
               id="path58"
               style="fill:url(#linearGradient56);stroke:none"
               d="m 375.638,217.267 c 0,-9.497 6.105,-17.591 14.596,-20.576 v 0 c -4.741,-32.076 -20.546,-61.543 -44.853,-83.394 v 0 C 319.702,90.212 286.527,77.5 251.965,77.5 v 0 c -28.994,0 -56.8,8.794 -80.413,25.431 v 0 c -21.547,15.18 -38.176,35.793 -48.355,59.864 v 0 l 42.432,15.924 c 6.953,-15.545 17.93,-28.874 31.997,-38.783 v 0 c 15.98,-11.259 34.771,-17.21 54.339,-17.21 v 0 c 52.14,0 94.557,42.419 94.557,94.558 v 0 5.653 H 284.337 V 211.63 h 50.69 c -2.916,-43.279 -39.057,-77.597 -83.062,-77.597 v 0 c -17.224,0 -33.763,5.237 -47.828,15.146 v 0 c -13.761,9.693 -24.163,23.095 -30.082,38.755 v 0 l -1.996,5.276 -63.538,-23.846 1.994,-5.296 c 10.711,-28.458 29.565,-52.795 54.524,-70.38 v 0 c 25.53,-17.987 55.589,-27.495 86.926,-27.495 v 0 c 37.357,0 73.218,13.742 100.974,38.696 v 0 c 26.477,23.8 43.623,55.966 48.599,90.962 v 0 c 10.074,1.921 17.714,10.791 17.714,21.416 v 0 c 0,12.024 -9.783,21.807 -21.807,21.807 v 0 c -12.024,0 -21.807,-9.783 -21.807,-21.807 m 11.306,0 c 0,5.791 4.712,10.501 10.501,10.501 v 0 c 5.79,0 10.502,-4.71 10.502,-10.501 v 0 c 0,-5.79 -4.712,-10.501 -10.502,-10.501 v 0 c -5.789,0 -10.501,4.711 -10.501,10.501" /></g></g></g></g><g
       id="g60"><g
         clip-path="url(#clipPath66)"
         id="g62"><g
           transform="translate(252.1992,244.0184)"
           id="g68"><path
             id="path70"
             style="fill:#d60f67;fill-opacity:1;fill-rule:nonzero;stroke:none"
             d="m 0,0 c -14.733,0 -26.719,-11.986 -26.719,-26.72 0,-14.732 11.986,-26.718 26.719,-26.718 14.733,0 26.719,11.986 26.719,26.718 C 26.719,-11.986 14.733,0 0,0 m 0,-64.744 c -20.968,0 -38.026,17.057 -38.026,38.024 0,20.968 17.058,38.027 38.026,38.027 20.967,0 38.025,-17.059 38.025,-38.027 0,-20.967 -17.058,-38.024 -38.025,-38.024" /></g><g
           transform="translate(585.2656,236.7576)"
           id="g72"><path
             id="path74"
             style="fill:#575a5c;fill-opacity:1;fill-rule:nonzero;stroke:none"
             d="m 0,0 c -1.723,1.435 -3.532,2.155 -5.42,2.155 -1.56,0 -3.04,-0.408 -4.435,-1.231 -1.396,-0.822 -2.338,-2.011 -2.833,-3.571 l -18.223,-55.257 -15.16,38.008 c -0.574,1.482 -1.477,2.652 -2.71,3.511 -1.231,0.864 -2.629,1.254 -4.187,1.171 -1.562,0.083 -2.956,-0.307 -4.189,-1.171 -1.231,-0.859 -2.176,-2.029 -2.833,-3.511 l -16.003,-38.427 -18.365,55.676 c -0.494,1.56 -1.416,2.749 -2.772,3.571 -1.354,0.823 -2.815,1.231 -4.373,1.231 -1.89,0 -3.718,-0.72 -5.482,-2.155 -1.767,-1.435 -2.648,-3.386 -2.648,-5.852 0,-0.738 0.123,-1.56 0.369,-2.461 l 24.267,-71.448 c 0.492,-1.476 1.395,-2.61 2.71,-3.385 1.314,-0.786 2.629,-1.217 3.943,-1.296 1.396,0 2.77,0.409 4.126,1.231 1.357,0.821 2.402,2.011 3.142,3.571 l 17.592,39.762 17.514,-39.762 c 0.741,-1.56 1.785,-2.75 3.142,-3.571 1.356,-0.822 2.728,-1.231 4.127,-1.231 1.395,0.079 2.728,0.51 4.003,1.296 1.272,0.775 2.155,1.909 2.649,3.385 L 2.218,-8.313 C 2.464,-7.412 2.587,-6.59 2.587,-5.852 2.587,-3.386 1.726,-1.435 0,0" /></g><g
           transform="translate(643.7207,186.4217)"
           id="g76"><path
             id="path78"
             style="fill:#575a5c;fill-opacity:1;fill-rule:nonzero;stroke:none"
             d="m 0,0 c 0,4.179 -0.841,7.801 -2.52,10.872 -1.679,3.071 -3.93,5.471 -6.756,7.19 -2.826,1.718 -5.959,2.58 -9.399,2.58 -3.441,0 -6.573,-0.862 -9.401,-2.58 -2.825,-1.719 -5.079,-4.119 -6.756,-7.19 -1.68,-3.071 -2.52,-6.693 -2.52,-10.872 0,-4.1 0.84,-7.68 2.52,-10.751 1.677,-3.071 3.931,-5.467 6.756,-7.189 2.828,-1.719 5.96,-2.581 9.401,-2.581 3.44,0 6.573,0.862 9.399,2.581 2.826,1.722 5.077,4.118 6.756,7.189 C -0.841,-7.68 0,-4.1 0,0 m 14.744,0 c 0,-6.717 -1.496,-12.637 -4.486,-17.755 -2.99,-5.119 -7.001,-9.112 -12.039,-11.979 -5.037,-2.868 -10.67,-4.299 -16.894,-4.299 -6.225,0 -11.856,1.431 -16.893,4.299 -5.038,2.867 -9.054,6.86 -12.042,11.979 -2.991,5.118 -4.484,11.038 -4.484,17.755 0,6.717 1.493,12.632 4.484,17.756 2.988,5.113 7.004,9.13 12.042,12.039 5.037,2.904 10.668,4.363 16.893,4.363 6.224,0 11.857,-1.459 16.894,-4.363 C 3.257,26.886 7.268,22.869 10.258,17.756 13.248,12.632 14.744,6.717 14.744,0" /></g><g
           transform="translate(751.9355,216.116)"
           id="g80"><path
             id="path82"
             style="fill:#575a5c;fill-opacity:1;fill-rule:nonzero;stroke:none"
             d="m 0,0 c -1.396,1.436 -3.038,2.155 -4.929,2.155 -3.778,0 -6.158,-1.56 -7.143,-4.681 l -13.203,-35.423 -9.465,25.692 c -0.576,1.477 -1.335,2.606 -2.279,3.386 -0.945,0.78 -2.322,1.171 -4.128,1.171 -3.203,0 -5.462,-1.52 -6.775,-4.557 l -9.718,-26.372 -13.319,36.103 c -0.493,1.644 -1.356,2.833 -2.588,3.576 -1.232,0.738 -2.629,1.105 -4.189,1.105 -2.299,0 -4.108,-0.78 -5.42,-2.341 -1.315,-1.56 -1.972,-3.325 -1.972,-5.294 0,-0.985 0.165,-1.933 0.494,-2.833 l 18.849,-50.757 c 0.573,-1.645 1.621,-2.894 3.141,-3.758 1.52,-0.864 3.059,-1.171 4.62,-0.925 2.792,0.163 4.886,1.724 6.282,4.683 l 9.925,30.304 10.525,-30.304 c 1.396,-2.959 3.491,-4.52 6.284,-4.683 1.643,-0.246 3.203,0.061 4.683,0.925 1.476,0.864 2.503,2.113 3.079,3.758 L 1.602,-8.313 c 0.163,0.408 0.288,0.84 0.37,1.291 0.081,0.45 0.123,0.965 0.123,1.542 C 2.095,-3.265 1.396,-1.435 0,0" /></g><g
           transform="translate(818.5186,185.9569)"
           id="g84"><path
             id="path86"
             style="fill:#575a5c;fill-opacity:1;fill-rule:nonzero;stroke:none"
             d="M 0,0 12.227,28.755 24.567,0 Z M 50.034,-23.833 19.809,48.166 c -0.575,1.557 -1.497,2.766 -2.765,3.623 -1.27,0.861 -2.641,1.292 -4.116,1.292 C 11.371,53.243 9.919,52.873 8.566,51.974 7.216,51.07 6.211,49.801 5.556,48.166 l -30.591,-73.472 c -0.246,-0.82 -0.371,-1.598 -0.371,-2.335 0,-1.806 0.533,-3.321 1.598,-4.548 1.063,-1.228 2.703,-1.844 4.914,-1.844 1.393,0 2.683,0.43 3.871,1.293 1.186,0.861 2.068,2.065 2.643,3.622 l 6.373,14.99 h 36.638 l 6.38,-14.865 c 0.653,-1.557 1.575,-2.784 2.763,-3.688 1.188,-0.898 2.52,-1.352 3.993,-1.352 1.721,0 3.298,0.658 4.732,1.969 1.432,1.306 2.149,3.071 2.149,5.281 0,0.903 -0.206,1.885 -0.614,2.95" /></g><g
           transform="translate(908.4033,166.4061)"
           id="g88"><path
             id="path90"
             style="fill:#575a5c;fill-opacity:1;fill-rule:nonzero;stroke:none"
             d="m 0,0 h -3.82 v 58.283 h 3.845 c 3.892,0 7.046,3.155 7.046,7.046 0,3.891 -3.154,7.046 -7.046,7.046 h -23.048 c -3.892,0 -7.046,-3.155 -7.046,-7.046 0,-3.891 3.154,-7.046 7.046,-7.046 h 3.844 V 0 h -3.87 c -3.891,0 -7.046,-3.154 -7.046,-7.046 0,-3.892 3.155,-7.046 7.046,-7.046 H 0 c 3.892,0 7.046,3.154 7.046,7.046 C 7.046,-3.154 3.892,0 0,0" /></g></g></g></g></svg>