<?xml version="1.0" encoding="UTF-8" standalone="no"?>
<svg
   xmlns:dc="http://purl.org/dc/elements/1.1/"
   xmlns:cc="http://creativecommons.org/ns#"
   xmlns:rdf="http://www.w3.org/1999/02/22-rdf-syntax-ns#"
   xmlns:svg="http://www.w3.org/2000/svg"
   xmlns="http://www.w3.org/2000/svg"
   viewBox="0 0 1333.3333 1333.3333"
   height="1333.3333"
   width="1333.3333"
   xml:space="preserve"
   id="svg2"
   version="1.1"><metadata
     id="metadata8"><rdf:RDF><cc:Work
         rdf:about=""><dc:format>image/svg+xml</dc:format><dc:type
           rdf:resource="http://purl.org/dc/dcmitype/StillImage" /></cc:Work></rdf:RDF></metadata><defs
     id="defs6"><clipPath
       id="clipPath18"
       clipPathUnits="userSpaceOnUse"><path
         id="path16"
         d="M 0,1000 H 1000 V 0 H 0 Z" /></clipPath><linearGradient
       id="linearGradient60"
       spreadMethod="pad"
       gradientTransform="matrix(-198.34779,0,0,198.34779,441.85693,692.00848)"
       gradientUnits="userSpaceOnUse"
       y2="0"
       x2="1"
       y1="0"
       x1="0"><stop
         id="stop52"
         offset="0"
         style="stop-opacity:1;stop-color:#d71068" /><stop
         id="stop54"
         offset="0.0389001"
         style="stop-opacity:1;stop-color:#d71068" /><stop
         id="stop56"
         offset="0.999979"
         style="stop-opacity:1;stop-color:#292a65" /><stop
         id="stop58"
         offset="1"
         style="stop-opacity:1;stop-color:#292a65" /></linearGradient><linearGradient
       id="linearGradient84"
       spreadMethod="pad"
       gradientTransform="matrix(201.23668,0,0,-201.23668,555.81598,463.26242)"
       gradientUnits="userSpaceOnUse"
       y2="0"
       x2="1"
       y1="0"
       x1="0"><stop
         id="stop76"
         offset="0"
         style="stop-opacity:1;stop-color:#d71068" /><stop
         id="stop78"
         offset="0.0389001"
         style="stop-opacity:1;stop-color:#d71068" /><stop
         id="stop80"
         offset="0.999979"
         style="stop-opacity:1;stop-color:#292a65" /><stop
         id="stop82"
         offset="1"
         style="stop-opacity:1;stop-color:#292a65" /></linearGradient><clipPath
       id="clipPath94"
       clipPathUnits="userSpaceOnUse"><path
         id="path92"
         d="M 0,1000 H 1000 V 0 H 0 Z" /></clipPath></defs><g
     transform="matrix(1.3333333,0,0,-1.3333333,0,1333.3333)"
     id="g10"><g
       id="g12"><g
         clip-path="url(#clipPath18)"
         id="g14"><g
           transform="translate(401.6909,230.6822)"
           id="g20"><path
             id="path22"
             style="fill:#575a5c;fill-opacity:1;fill-rule:nonzero;stroke:none"
             d="m 0,0 c -1.528,1.273 -3.132,1.911 -4.807,1.911 -1.383,0 -2.695,-0.362 -3.933,-1.091 -1.238,-0.729 -2.073,-1.783 -2.512,-3.168 l -16.161,-49.002 -13.443,33.706 c -0.509,1.314 -1.31,2.352 -2.404,3.114 -1.091,0.766 -2.331,1.112 -3.713,1.038 -1.385,0.074 -2.621,-0.272 -3.715,-1.038 -1.091,-0.762 -1.929,-1.8 -2.512,-3.114 l -14.192,-34.077 -16.286,49.373 c -0.438,1.385 -1.256,2.439 -2.458,3.168 -1.201,0.729 -2.496,1.091 -3.878,1.091 -1.676,0 -3.297,-0.638 -4.862,-1.911 -1.567,-1.272 -2.348,-3.002 -2.348,-5.189 0,-0.655 0.11,-1.384 0.328,-2.183 l 21.52,-63.36 c 0.436,-1.31 1.237,-2.315 2.403,-3.002 1.165,-0.697 2.331,-1.079 3.496,-1.15 1.238,0 2.457,0.363 3.66,1.092 1.202,0.729 2.129,1.783 2.786,3.167 l 15.6,35.262 15.533,-35.262 c 0.656,-1.384 1.583,-2.438 2.786,-3.167 1.202,-0.729 2.419,-1.092 3.659,-1.092 1.238,0.071 2.42,0.453 3.55,1.15 1.129,0.687 1.911,1.692 2.35,3.002 l 21.519,63.36 c 0.219,0.799 0.328,1.528 0.328,2.183 C 2.294,-3.002 1.53,-1.272 0,0" /></g><g
           transform="translate(453.5293,186.0445)"
           id="g24"><path
             id="path26"
             style="fill:#575a5c;fill-opacity:1;fill-rule:nonzero;stroke:none"
             d="m 0,0 c 0,3.705 -0.746,6.918 -2.235,9.641 -1.489,2.723 -3.485,4.851 -5.991,6.376 -2.506,1.524 -5.285,2.288 -8.335,2.288 -3.052,0 -5.829,-0.764 -8.337,-2.288 -2.506,-1.525 -4.504,-3.653 -5.992,-6.376 -1.488,-2.723 -2.234,-5.936 -2.234,-9.641 0,-3.636 0.746,-6.812 2.234,-9.535 1.488,-2.723 3.486,-4.847 5.992,-6.375 2.508,-1.525 5.285,-2.288 8.337,-2.288 3.05,0 5.829,0.763 8.335,2.288 2.506,1.528 4.502,3.652 5.991,6.375 C -0.746,-6.812 0,-3.636 0,0 m 13.076,0 c 0,-5.957 -1.327,-11.207 -3.979,-15.746 -2.652,-4.539 -6.209,-8.08 -10.677,-10.623 -4.467,-2.543 -9.462,-3.812 -14.981,-3.812 -5.521,0 -10.514,1.269 -14.981,3.812 -4.468,2.543 -8.029,6.084 -10.679,10.623 -2.652,4.539 -3.977,9.789 -3.977,15.746 0,5.956 1.325,11.202 3.977,15.745 2.65,4.535 6.211,8.097 10.679,10.677 4.467,2.575 9.46,3.87 14.981,3.87 5.519,0 10.514,-1.295 14.981,-3.87 C 2.888,23.842 6.445,20.28 9.097,15.745 11.749,11.202 13.076,5.956 13.076,0" /></g><g
           transform="translate(549.4951,212.3775)"
           id="g28"><path
             id="path30"
             style="fill:#575a5c;fill-opacity:1;fill-rule:nonzero;stroke:none"
             d="m 0,0 c -1.238,1.272 -2.694,1.911 -4.37,1.911 -3.351,0 -5.462,-1.384 -6.335,-4.151 l -11.709,-31.413 -8.394,22.783 c -0.51,1.31 -1.184,2.311 -2.02,3.003 -0.838,0.692 -2.06,1.038 -3.662,1.038 -2.84,0 -4.844,-1.347 -6.007,-4.041 l -8.618,-23.386 -11.812,32.016 c -0.437,1.458 -1.203,2.511 -2.295,3.171 -1.093,0.655 -2.331,0.98 -3.715,0.98 -2.039,0 -3.643,-0.691 -4.807,-2.076 -1.165,-1.384 -1.748,-2.949 -1.748,-4.695 0,-0.873 0.146,-1.714 0.438,-2.513 l 16.715,-45.012 c 0.509,-1.458 1.438,-2.566 2.787,-3.332 1.346,-0.766 2.712,-1.038 4.096,-0.819 2.476,0.143 4.333,1.527 5.571,4.151 l 8.801,26.875 9.334,-26.875 c 1.238,-2.624 3.096,-4.008 5.573,-4.151 1.456,-0.219 2.84,0.053 4.153,0.819 1.309,0.766 2.219,1.874 2.73,3.332 L 1.421,-7.373 c 0.144,0.362 0.255,0.746 0.327,1.145 0.072,0.4 0.109,0.857 0.109,1.368 0,1.964 -0.62,3.588 -1.857,4.86" /></g><g
           transform="translate(608.542,185.6324)"
           id="g32"><path
             id="path34"
             style="fill:#575a5c;fill-opacity:1;fill-rule:nonzero;stroke:none"
             d="M 0,0 10.843,25.499 21.786,0 Z m 44.371,-21.136 -26.805,63.85 c -0.508,1.38 -1.326,2.452 -2.452,3.212 -1.126,0.764 -2.342,1.146 -3.65,1.146 -1.38,0.144 -2.668,-0.184 -3.867,-0.981 -1.198,-0.802 -2.089,-1.927 -2.67,-3.377 l -27.129,-65.156 c -0.218,-0.727 -0.328,-1.417 -0.328,-2.071 0,-1.601 0.471,-2.945 1.417,-4.033 0.942,-1.089 2.396,-1.636 4.358,-1.636 1.234,0 2.378,0.383 3.432,1.147 1.052,0.764 1.835,1.832 2.344,3.213 l 5.652,13.293 h 32.491 l 5.657,-13.183 c 0.579,-1.38 1.397,-2.469 2.45,-3.269 1.054,-0.797 2.236,-1.201 3.542,-1.201 1.526,0 2.924,0.584 4.196,1.746 1.269,1.159 1.906,2.724 1.906,4.684 0,0.801 -0.183,1.672 -0.544,2.616" /></g><g
           transform="translate(688.2529,168.2945)"
           id="g36"><path
             id="path38"
             style="fill:#575a5c;fill-opacity:1;fill-rule:nonzero;stroke:none"
             d="m 0,0 h -3.388 v 51.686 h 3.409 c 3.452,0 6.25,2.796 6.25,6.248 0,3.451 -2.798,6.249 -6.25,6.249 h -20.439 c -3.451,0 -6.249,-2.798 -6.249,-6.249 0,-3.452 2.798,-6.248 6.249,-6.248 h 3.41 V 0 h -3.432 c -3.452,0 -6.248,-2.798 -6.248,-6.249 0,-3.45 2.796,-6.248 6.248,-6.248 H 0 c 3.451,0 6.248,2.798 6.248,6.248 C 6.248,-2.798 3.451,0 0,0" /></g></g></g><g
       id="g40"><g
         id="g42"><g
           id="g48"><g
             id="g50"><path
               id="path62"
               style="fill:url(#linearGradient60);stroke:none"
               d="M 321.087,776.465 C 274.254,734.363 243.923,677.466 235.121,615.562 v 0 c -17.82,-3.398 -31.335,-19.088 -31.335,-37.884 v 0 c 0,-21.27 17.304,-38.574 38.575,-38.574 v 0 c 21.271,0 38.575,17.304 38.575,38.574 v 0 c 0,16.801 -10.799,31.118 -25.818,36.397 v 0 c 8.385,56.742 36.342,108.864 79.339,147.517 v 0 c 45.423,40.833 104.108,63.321 165.245,63.321 v 0 c 51.287,0 100.475,-15.556 142.246,-44.986 v 0 c 38.113,-26.852 67.526,-63.315 85.535,-105.893 v 0 l -75.06,-28.168 c -12.299,27.497 -31.716,51.075 -56.599,68.604 v 0 c -28.269,19.916 -61.507,30.443 -96.122,30.443 v 0 c -92.23,0 -167.264,-75.034 -167.264,-167.264 v 0 -10 h 110 v 20 h -89.663 c 5.157,76.556 69.086,137.264 146.927,137.264 v 0 c 30.469,0 59.724,-9.265 84.603,-26.792 v 0 c 24.342,-17.149 42.743,-40.855 53.215,-68.556 v 0 l 3.527,-9.331 112.393,42.18 -3.525,9.368 c -18.948,50.339 -52.298,93.389 -96.448,124.496 v 0 c -45.161,31.817 -98.332,48.635 -153.765,48.635 v 0 c -66.081,0 -129.516,-24.308 -178.615,-68.448 M 223.786,577.678 c 0,10.242 8.333,18.576 18.575,18.576 v 0 c 10.242,0 18.575,-8.334 18.575,-18.576 v 0 c 0,-10.242 -8.333,-18.575 -18.575,-18.575 v 0 c -10.242,0 -18.575,8.333 -18.575,18.575" /></g></g></g></g><g
       id="g64"><g
         id="g66"><g
           id="g72"><g
             id="g74"><path
               id="path86"
               style="fill:url(#linearGradient84);stroke:none"
               d="m 718.055,577.592 c 0,-16.8 10.798,-31.117 25.817,-36.397 v 0 C 735.487,484.455 707.53,432.333 664.533,393.68 v 0 C 619.11,352.846 560.425,330.358 499.288,330.358 v 0 c -51.287,0 -100.474,15.555 -142.245,44.985 v 0 c -38.113,26.853 -67.527,63.315 -85.535,105.894 v 0 l 75.059,28.168 c 12.3,-27.497 31.717,-51.075 56.6,-68.605 v 0 c 28.269,-19.916 61.507,-30.442 96.121,-30.442 v 0 c 92.231,0 167.265,75.034 167.265,167.264 v 0 10 h -110 v -20 h 89.664 C 641.059,491.065 577.129,430.358 499.288,430.358 v 0 c -30.468,0 -59.724,9.265 -84.603,26.792 v 0 c -24.341,17.148 -42.742,40.854 -53.214,68.555 v 0 l -3.528,9.331 -112.393,-42.179 3.526,-9.368 C 268.023,433.15 301.375,390.1 345.525,358.994 v 0 c 45.16,-31.818 98.331,-48.636 153.763,-48.636 v 0 c 66.082,0 129.516,24.309 178.616,68.448 v 0 c 46.834,42.102 77.164,98.999 85.965,160.902 v 0 c 17.821,3.4 31.336,19.089 31.336,37.884 v 0 c 0,21.271 -17.304,38.575 -38.575,38.575 v 0 c -21.271,0 -38.575,-17.304 -38.575,-38.575 m 20,0 c 0,10.242 8.333,18.575 18.575,18.575 v 0 c 10.242,0 18.575,-8.333 18.575,-18.575 v 0 c 0,-10.242 -8.333,-18.575 -18.575,-18.575 v 0 c -10.242,0 -18.575,8.333 -18.575,18.575" /></g></g></g></g><g
       id="g88"><g
         clip-path="url(#clipPath94)"
         id="g90"><g
           transform="translate(499.7021,624.9131)"
           id="g96"><path
             id="path98"
             style="fill:#d60f67;fill-opacity:1;fill-rule:nonzero;stroke:none"
             d="m 0,0 c -26.062,0 -47.264,-21.203 -47.264,-47.264 0,-26.061 21.202,-47.263 47.264,-47.263 26.062,0 47.265,21.202 47.265,47.263 C 47.265,-21.203 26.062,0 0,0 m 0,-114.527 c -37.089,0 -67.264,30.174 -67.264,67.263 C -67.264,-10.175 -37.089,20 0,20 37.09,20 67.265,-10.175 67.265,-47.264 67.265,-84.353 37.09,-114.527 0,-114.527" /></g></g></g></g></svg>