<?xml version="1.0" standalone="no"?>
<svg id="Vector" width="1864" height="1339" viewBox="0 0 1864 1339" fill="none" xmlns="http://www.w3.org/2000/svg" style="max-width: 100%; max-height: 100%;">
<path opacity="0.3" d="M1863 172.845L1803.6 207.923V325.389L1255.08 649.232L1288.8 669.136L1571.48 502.228L1571.73 502.058H1777.43L1863 451.551V454.321L1778.35 504.317L1778.1 504.487H1572.4L1291.18 670.543L1320.85 688.06L1588.36 530.146L1588.61 529.975H1824.65L1862.96 507.343V510.113L1825.53 532.192L1825.28 532.362H1589.24L1549.64 555.719H1862.96V558.106H1545.6L1445.81 617.009L1485.04 640.153H1554.6L1619.75 678.598C1623.83 676.851 1629.54 677.064 1633.21 679.238C1637.3 681.624 1637.3 685.546 1633.21 687.932C1629.13 690.319 1622.54 690.319 1618.46 687.932C1614.79 685.759 1614.46 682.392 1617.42 679.962L1554.02 642.54H1489.16L1640.71 732.046H1780.85L1859 685.887C1856.04 683.5 1856.37 680.09 1860.04 677.916C1860.92 677.405 1861.92 677.021 1862.96 676.723V687.719C1862.42 687.549 1861.83 687.464 1861.29 687.25L1781.72 734.263L1781.43 734.433H1640.01L1443.48 618.416L1359.99 667.687H1406.09L1443.23 689.595C1447.31 687.762 1453.15 687.932 1456.86 690.149C1460.94 692.536 1460.94 696.457 1456.86 698.844C1452.77 701.231 1446.19 701.231 1442.1 698.844C1438.48 696.713 1438.1 693.388 1440.94 691.001L1405.51 670.074H1355.99L1323.23 689.424L1391.42 729.702L1393.17 730.725L1371.25 743.682L1491.91 814.903H1532.18L1580.24 786.517C1577.28 784.13 1577.61 780.721 1581.28 778.547C1585.36 776.16 1591.95 776.16 1596.03 778.547C1600.12 780.934 1600.12 784.855 1596.03 787.242C1592.36 789.416 1586.65 789.586 1582.57 787.881L1533.05 817.12L1532.76 817.29H1491.25L1403.59 765.547V812.943L1485.79 861.447C1489.87 859.699 1495.58 859.912 1499.25 862.086C1503.33 864.473 1503.33 868.394 1499.25 870.781C1495.16 873.168 1488.58 873.168 1484.49 870.781C1480.83 868.607 1480.49 865.24 1483.45 862.853L1401.26 814.307V764.141L1368.91 745.046L1255.12 812.218L1307.93 843.375H1376.37L1484.62 907.265H1566.73L1680.94 839.837C1677.98 837.408 1678.31 834.041 1681.98 831.867C1686.06 829.48 1692.65 829.48 1696.73 831.867C1700.82 834.254 1700.82 838.175 1696.73 840.562C1693.07 842.736 1687.36 842.906 1683.27 841.201L1567.65 909.482L1567.36 909.652H1483.99L1375.75 845.762H1311.98L1629.13 1033H1853.12L1863 1038.84V1041.61L1852.5 1035.39H1628.46L1252.75 813.582L1210.11 838.772L1589.41 1062.71L1589.99 1063.05V1196.88L1719.78 1273.52C1723.87 1271.77 1729.58 1271.98 1733.25 1274.16C1737.33 1276.54 1737.33 1280.46 1733.25 1282.85C1729.16 1285.24 1722.58 1285.24 1718.49 1282.85C1714.82 1280.68 1714.49 1277.31 1717.45 1274.92L1587.65 1198.29V1064.46L1207.77 840.178L1163.01 866.604L1385.5 997.965L1386.08 998.306V1113.17L1004.95 1338.17H987.906C987.947 1338.13 987.989 1338.09 988.031 1338.09C991.699 1335.92 997.409 1335.75 1001.49 1337.45L1282.51 1171.52H1198.02L1046.47 1260.99C1049.43 1263.37 1049.09 1266.78 1045.43 1268.91C1041.34 1271.3 1034.76 1271.3 1030.67 1268.91C1026.59 1266.53 1026.59 1262.61 1030.67 1260.22C1034.34 1258.04 1040.05 1257.87 1044.13 1259.58L1197.1 1169.26L1197.35 1169.09H1286.51L1383.67 1111.72V999.627L1204.52 893.882V950.868L1315.19 1016.21V1073.88C1317.44 1074.05 1319.65 1074.6 1321.4 1075.62C1325.48 1078.01 1325.48 1081.93 1321.4 1084.32C1317.31 1086.7 1310.73 1086.7 1306.64 1084.32C1302.56 1081.93 1302.56 1078.01 1306.64 1075.62C1308.39 1074.6 1310.6 1074.05 1312.85 1073.88V1017.57L1202.19 952.232V892.518L1160.55 867.925L1115.16 894.735L1114.57 895.076L1086.69 878.624V1003.04L1183.76 1060.36C1187.85 1058.62 1193.56 1058.83 1197.23 1061C1201.31 1063.39 1201.31 1067.31 1197.23 1069.7C1193.14 1072.08 1186.56 1072.08 1182.47 1069.7C1178.8 1067.52 1178.47 1064.16 1181.43 1061.77L1084.36 1004.44V953.681L1011.79 996.516V1044.68L1170.09 1138.15C1174.18 1136.4 1179.89 1136.61 1183.56 1138.79C1187.64 1141.18 1187.64 1145.1 1183.56 1147.48C1179.47 1149.87 1172.89 1149.87 1168.8 1147.48C1165.13 1145.31 1164.8 1141.94 1167.76 1139.51L1010.04 1046.38L1009.45 1046.04V995.11L1084.36 950.868V877.217L1044.63 853.775L1011.04 873.594V918.646L960.146 948.694C963.105 951.124 962.772 954.491 959.104 956.622C955.019 959.009 948.434 959.009 944.349 956.622C940.264 954.235 940.264 950.314 944.349 947.927C948.017 945.753 953.727 945.583 957.812 947.288L1008.7 917.239V874.958L897.666 940.511V1039.27L1064.77 1137.94L1065.35 1138.28V1175.44L970.858 1231.24C973.817 1233.67 973.484 1237.03 969.816 1239.21C965.731 1241.59 959.146 1241.59 955.061 1239.21C950.976 1236.82 950.976 1232.9 955.061 1230.51C958.729 1228.34 964.439 1228.17 968.524 1229.87L1063.01 1174.08V1139.64L895.915 1040.97L895.332 1040.63V939.147L1042.3 852.368L1012.62 834.851L822.015 947.373V1132.52L766.371 1165.38V1335.62L762.119 1338.13H757.451L764.078 1334.21V1166.75L473.811 1338.09H469.143L819.722 1131.12V945.966L1010.33 833.444L976.61 813.54L791.046 923.078L791.629 924.101L615.068 1028.35V1051.16L579.222 1072.3V1137.51L315.631 1293.12C318.591 1295.51 318.257 1298.92 314.589 1301.09C310.505 1303.48 303.919 1303.48 299.834 1301.09C295.749 1298.71 295.749 1294.79 299.834 1292.4C303.502 1290.22 309.212 1290.05 313.297 1291.76L576.888 1136.15V1073.7L531.247 1100.64C534.207 1103.03 533.873 1106.44 530.205 1108.61C526.121 1111 519.535 1111 515.45 1108.61C511.366 1106.23 511.366 1102.3 515.45 1099.92C519.118 1097.74 524.829 1097.57 528.913 1099.28L612.692 1049.79V1026.99L787.795 923.59H706.475L356.27 1130.35V1184.39L217.514 1266.31C220.473 1268.7 220.14 1272.11 216.472 1274.28C212.387 1276.67 205.802 1276.67 201.717 1274.28C197.632 1271.9 197.632 1267.98 201.717 1265.59C205.385 1263.42 211.095 1263.24 215.18 1264.95L353.936 1183.03V1128.99L701.765 923.632H464.891L180.126 1091.78L179.834 1091.95H-153.239L-348.474 976.697C-352.558 978.444 -358.269 978.231 -361.937 976.057C-366.021 973.671 -366.021 969.749 -361.937 967.363C-357.852 964.976 -351.266 964.976 -347.181 967.363C-343.514 969.536 -343.18 972.903 -346.139 975.29L-152.614 1089.56H179.209L463.974 921.416L464.224 921.245H789.42L974.109 812.218L939.18 791.589L805.301 870.653L805.051 870.824H428.212L164.037 1026.78C166.997 1029.16 166.663 1032.57 162.995 1034.71C158.91 1037.09 152.325 1037.09 148.24 1034.71C144.155 1032.32 144.155 1028.4 148.24 1026.01C151.908 1023.84 157.618 1023.67 161.703 1025.37L427.337 868.565L427.587 868.394H706.308L633.283 825.261H436.09C435.714 826.411 434.756 827.52 433.255 828.415C429.171 830.802 422.585 830.802 418.5 828.415C414.415 826.028 414.415 822.107 418.5 819.72C422.585 817.333 429.171 817.333 433.255 819.72C434.756 820.615 435.715 821.723 436.131 822.874H633.95L711.018 868.394H804.425L936.888 790.183L906.127 772.026L788.92 841.244L788.67 841.414H741.445L645.662 784.855H356.812L175.916 678.044C171.831 679.706 166.246 679.451 162.62 677.32C158.535 674.933 158.535 671.012 162.62 668.625C166.705 666.238 173.29 666.238 177.375 668.625C181.126 670.841 181.376 674.251 178.292 676.68L357.479 782.468H646.329L742.196 839.028H788.128L873.241 788.776H830.684L789.42 813.113L789.17 813.284H756.951L685.217 770.96C681.174 772.58 675.589 772.367 671.963 770.236C667.878 767.849 667.878 763.928 671.963 761.541C676.048 759.154 682.633 759.154 686.718 761.541C690.469 763.757 690.719 767.209 687.593 769.639L757.576 810.94H788.545L829.809 786.602L830.101 786.432H877.326L903.96 770.704L860.653 745.131H796.798L717.729 698.46C713.644 700.208 707.934 699.995 704.266 697.821C700.181 695.434 700.181 691.513 704.266 689.126C708.35 686.739 714.936 686.739 719.021 689.126C722.689 691.3 723.022 694.667 720.063 697.096L797.423 742.744H856.568L837.979 731.748L836.228 730.725L867.864 712.057L782.251 661.507H692.22L597.27 717.555C600.23 719.942 599.896 723.351 596.228 725.482C592.144 727.869 585.558 727.869 581.473 725.482C577.389 723.096 577.389 719.174 581.473 716.788C585.141 714.614 590.851 714.443 594.936 716.148L643.828 687.293H466.267L415.207 657.159H313.464C313.089 658.31 312.13 659.418 310.588 660.313C306.503 662.7 299.918 662.7 295.833 660.313C291.748 657.927 291.748 654.005 295.833 651.618C299.918 649.232 306.503 649.232 310.588 651.618C312.088 652.514 313.047 653.622 313.422 654.773H415.791L466.85 684.906H647.829L691.261 659.248L691.511 659.077H778.083L742.571 638.107H538.875L486.315 607.078H330.428L255.902 563.093C251.817 564.84 246.107 564.627 242.439 562.453C238.355 560.066 238.355 556.145 242.439 553.758C246.524 551.371 253.11 551.371 257.194 553.758C260.862 555.932 261.196 559.299 258.236 561.729L331.22 604.734H482.439L307.378 501.376H178.876L124.774 469.452C120.689 471.199 114.978 470.986 111.31 468.813C107.226 466.426 107.226 462.505 111.31 460.118C115.395 457.731 121.981 457.731 126.066 460.118C129.734 462.291 130.067 465.659 127.108 468.088L179.501 499.032H308.004L539.667 635.806H743.363L870.198 710.693L929.302 675.785L781.709 588.666H622.904L442.759 482.281C438.674 484.029 432.963 483.816 429.296 481.642C425.211 479.255 425.211 475.334 429.296 472.947C433.38 470.56 439.966 470.56 444.051 472.947C447.719 475.121 448.052 478.488 445.093 480.917L623.529 586.279H777.666L583.349 471.54L582.765 471.199V379.051L292.04 207.412C287.955 209.159 282.245 208.946 278.577 206.772C274.492 204.385 274.492 200.464 278.577 198.077C282.661 195.691 289.247 195.691 293.332 198.077C297 200.251 297.333 203.618 294.374 206.048L584.474 377.346L585.058 377.687V469.836L931.594 674.421L982.445 644.373L774.748 521.749L774.165 521.408V336.258L589.226 227.06C585.141 228.808 579.431 228.595 575.763 226.421C571.678 224.034 571.678 220.113 575.763 217.726C579.848 215.339 586.433 215.339 590.518 217.726C594.186 219.9 594.519 223.267 591.56 225.696L775.916 334.553L776.499 334.894V520.044L984.779 643.009L1016.17 624.468L861.82 533.342V316.354L787.628 272.538V190.917L722.105 152.259C718.02 154.006 712.31 153.793 708.642 151.619C704.557 149.232 704.557 145.311 708.642 142.924C712.727 140.538 719.313 140.538 723.397 142.924C727.065 145.098 727.399 148.465 724.439 150.895L789.962 189.553V271.174L864.154 314.99V531.978L1018.5 623.104L1060.85 598.128L942.765 528.398V165.855H945.099V378.198L1004.29 343.248V224.205C1002.04 224.034 999.826 223.48 998.076 222.457C993.991 220.07 993.991 216.149 998.076 213.762C1002.16 211.375 1008.75 211.375 1012.83 213.762C1016.92 216.149 1016.92 220.07 1012.83 222.457C1011.08 223.48 1008.87 224.034 1006.62 224.205V344.655L945.057 380.969V444.987L1022.96 398.998C1020.25 396.611 1020.67 393.329 1024.25 391.198C1028.34 388.811 1034.92 388.811 1039.01 391.198C1043.09 393.585 1043.09 397.506 1039.01 399.893C1035.26 402.109 1029.34 402.237 1025.25 400.362L945.057 447.715V526.949L1063.14 596.679L1100.86 574.43L1043.47 540.545V490.635L1057.97 482.068V456.623L1161.42 395.545V352.412L1245.62 302.672C1242.66 300.242 1242.99 296.875 1246.66 294.702C1250.75 292.315 1257.33 292.315 1261.42 294.702C1265.5 297.088 1265.5 301.01 1261.42 303.396C1257.75 305.57 1252.04 305.741 1247.95 304.036L1163.76 353.733V396.867L1060.31 457.944V480.619L1234.16 377.985C1231.45 375.598 1231.86 372.316 1235.45 370.185C1239.53 367.798 1246.12 367.798 1250.2 370.185C1254.29 372.572 1254.29 376.493 1250.2 378.88C1246.45 381.096 1240.53 381.224 1236.45 379.349L1097.07 461.652H1167.01L1247.2 414.299C1244.24 411.912 1244.58 408.502 1248.25 406.329C1252.33 403.942 1258.92 403.942 1263 406.329C1267.09 408.715 1267.09 412.637 1263 415.024C1259.33 417.197 1253.62 417.368 1249.54 415.663L1167.63 464.039H1093.23V463.911L1045.8 491.914V539.054L1103.2 572.938L1113.99 566.545L1114.57 566.204L1129.37 574.941L1370.33 432.669L1370.58 432.499H1436.31C1436.69 431.348 1437.64 430.24 1439.19 429.345C1443.27 426.958 1449.86 426.958 1453.94 429.345C1458.03 431.731 1458.03 435.653 1453.94 438.039C1449.86 440.426 1443.27 440.426 1439.19 438.039C1437.69 437.144 1436.73 436.036 1436.31 434.885H1371.2L1131.71 576.305L1168.34 597.915L1368.58 479.681C1365.62 477.294 1365.95 473.885 1369.62 471.711C1373.71 469.324 1380.29 469.324 1384.38 471.711C1388.46 474.098 1388.46 478.019 1384.38 480.406C1380.71 482.579 1375 482.75 1370.91 481.045L1170.68 599.279L1208.61 621.655L1491.54 454.619V314.777L1358.08 235.968V236.011H1235.24L1137.96 178.556C1133.87 180.304 1128.16 180.091 1124.49 177.917C1120.41 175.53 1120.41 171.609 1124.49 169.222C1128.58 166.835 1135.16 166.835 1139.25 169.222C1142.92 171.396 1143.25 174.763 1140.29 177.193L1235.87 233.624H1354.07L1191.89 137.852L1191.31 137.511V12.9698C1189.06 12.7993 1186.85 12.2453 1185.1 11.2223C1181.01 8.8355 1181.01 4.91426 1185.1 2.52743C1189.18 0.140596 1195.77 0.140596 1199.85 2.52743C1203.94 4.91426 1203.94 8.8355 1199.85 11.2223C1198.1 12.2453 1195.89 12.7993 1193.64 12.9698V136.148L1463.28 295.341L1629.29 197.609V87.4732L1747.13 17.914C1744.17 15.5272 1744.5 12.1174 1748.17 9.94367C1752.25 7.55684 1758.84 7.55684 1762.92 9.94367C1767.01 12.3305 1767.01 16.2517 1762.92 18.6386C1759.26 20.8123 1753.55 20.9828 1749.46 19.2779L1631.63 88.8797V199.015L1465.78 296.918L1493.41 313.242L1494 313.583V423.548L1541.81 395.332V326.668L1639.09 269.214C1636.13 266.827 1636.46 263.417 1640.13 261.243C1644.22 258.856 1650.8 258.856 1654.89 261.243C1658.97 263.63 1658.97 267.551 1654.89 269.938C1651.22 272.112 1645.51 272.282 1641.42 270.577L1544.14 327.989V396.653L1494 426.276V456.154L1211.07 623.19L1252.75 647.783L1801.27 323.94V206.474L1863 170.117V172.845ZM1114.7 569.102L840.896 730.725L1114.66 892.348L1388.46 730.725L1114.7 569.102Z" stroke="url(#paint0_radial_224_54)" stroke-opacity="0.31" stroke-miterlimit="10" stroke-dasharray="0,0,0,48312.8671875"><animate attributeType="XML" attributeName="stroke-dasharray" repeatCount="1" dur="1.6129032258064515s" values="0,0,0,48312.8671875; 
          0,24156.43359375,24156.43359375,0; 
          48312.8671875,0,0,0" keyTimes="0; 0.5; 1" fill="freeze"></animate></path>
<defs>
<radialGradient id="paint0_radial_224_54" cx="0" cy="0" r="1" gradientUnits="userSpaceOnUse" gradientTransform="translate(749.07 669.538) rotate(180) scale(915.363 936.027)">
<stop stop-color="#42E8E0"></stop>
<stop offset="0.1055" stop-color="#37B6BF"></stop>
<stop offset="0.2197" stop-color="#2C87A1"></stop>
<stop offset="0.338" stop-color="#235F87"></stop>
<stop offset="0.4587" stop-color="#1C3F72"></stop>
<stop offset="0.5824" stop-color="#162561"></stop>
<stop offset="0.7105" stop-color="#121355"></stop>
<stop offset="0.8458" stop-color="#10084E"></stop>
<stop offset="1" stop-color="#0F054C"></stop>
</radialGradient>
</defs>
<setting>{"type":"direct","speed":31,"random":1,"shift":1,"size":1,"rupture":50}</setting></svg>